<svg xmlns="http://www.w3.org/2000/svg" xmlns:xlink="http://www.w3.org/1999/xlink" width="1920" zoomAndPan="magnify" viewBox="0 0 1440 809.999993" height="1080" preserveAspectRatio="xMidYMid meet" version="1.0"><defs><g/><clipPath id="cf72cabaf0"><path d="M 653 249 L 832 249 L 832 466.554688 L 653 466.554688 Z M 653 249 " clip-rule="nonzero"/></clipPath><clipPath id="9f520ab8d4"><path d="M 463.488281 281 L 584.988281 281 L 584.988281 367.195312 L 463.488281 367.195312 Z M 463.488281 281 " clip-rule="nonzero"/></clipPath><clipPath id="37ee43d26c"><path d="M 1250 319 L 1340 319 L 1340 414 L 1250 414 Z M 1250 319 " clip-rule="nonzero"/></clipPath><clipPath id="80674be89b"><path d="M 1302.589844 304.105469 L 1358.78125 383.785156 L 1290.132812 432.195312 L 1233.941406 352.515625 Z M 1302.589844 304.105469 " clip-rule="nonzero"/></clipPath><clipPath id="7f56febde9"><path d="M 1302.589844 304.105469 L 1358.78125 383.785156 L 1290.132812 432.195312 L 1233.941406 352.515625 Z M 1302.589844 304.105469 " clip-rule="nonzero"/></clipPath><clipPath id="3e8251d9c6"><path d="M 156 297 L 250 297 L 250 389 L 156 389 Z M 156 297 " clip-rule="nonzero"/></clipPath><clipPath id="e4f753e101"><path d="M 139.785156 339.382812 L 216.277344 278.921875 L 268.367188 344.824219 L 191.875 405.28125 Z M 139.785156 339.382812 " clip-rule="nonzero"/></clipPath><clipPath id="d15f5d7d60"><path d="M 139.785156 339.382812 L 216.277344 278.921875 L 268.367188 344.824219 L 191.875 405.28125 Z M 139.785156 339.382812 " clip-rule="nonzero"/></clipPath></defs><path fill="#7ed957" d="M 704.691406 278.730469 C 710.285156 276.460938 715.257812 273.28125 719.585938 269.761719 C 718.832031 262.484375 717.609375 256.75 715.945312 252.714844 C 711.140625 241.046875 698.273438 223.714844 690.667969 220.867188 C 689.464844 220.417969 688.496094 220.367188 687.792969 220.722656 C 683.34375 222.945312 683.835938 234.746094 685.296875 242.738281 C 688.328125 242.625 690.351562 242.796875 690.558594 242.816406 C 691.667969 242.917969 692.484375 243.902344 692.382812 245.011719 C 692.28125 246.125 691.300781 246.949219 690.1875 246.839844 C 690.070312 246.828125 678.125 245.820312 668.167969 250.800781 C 658.167969 255.800781 651.707031 266.015625 651.640625 266.117188 C 651.257812 266.730469 650.601562 267.070312 649.929688 267.070312 C 649.5625 267.070312 649.191406 266.96875 648.859375 266.761719 C 647.914062 266.171875 647.625 264.925781 648.21875 263.980469 C 648.328125 263.800781 649.433594 262.058594 651.382812 259.671875 C 646.03125 253.640625 637.113281 246.054688 632.691406 248.269531 C 631.976562 248.625 631.421875 249.445312 631.035156 250.707031 C 628.628906 258.578125 634.347656 279.496094 640.539062 290.464844 C 642.300781 293.589844 645.152344 297.179688 649.023438 301.160156 L 649.023438 284.203125 C 649.023438 283.597656 649.292969 283.023438 649.761719 282.640625 C 650.230469 282.253906 650.84375 282.101562 651.4375 282.222656 C 651.738281 282.28125 681.601562 288.101562 704.691406 278.730469 Z M 704.691406 278.730469 " fill-opacity="1" fill-rule="nonzero"/><path fill="#7ed957" d="M 636.160156 349.632812 C 627.8125 338.808594 628.785156 319.117188 629.867188 312.441406 C 630.558594 308.351562 627.855469 304.464844 623.839844 303.765625 C 623.4375 303.695312 623.027344 303.660156 622.613281 303.660156 C 619.023438 303.660156 615.96875 306.277344 615.359375 309.878906 C 614.832031 312.992188 610.613281 340.785156 624.582031 358.894531 C 629.472656 365.234375 637.6875 370.183594 649.023438 373.621094 L 649.023438 357.855469 C 642.945312 355.589844 638.625 352.828125 636.160156 349.632812 Z M 636.160156 349.632812 " fill-opacity="1" fill-rule="nonzero"/><path fill="#7ed957" d="M 849.878906 261.554688 C 847.839844 248.433594 826.34375 250.96875 826.128906 251 C 825.460938 251.082031 824.785156 250.824219 824.34375 250.308594 C 824.289062 250.246094 818.605469 243.714844 809.988281 239.78125 C 801.339844 235.832031 792.808594 235.875 792.714844 235.867188 C 792.710938 235.867188 792.703125 235.867188 792.695312 235.867188 C 792.027344 235.867188 791.398438 235.535156 791.023438 234.976562 C 790.898438 234.796875 778.515625 216.792969 767.515625 223.921875 C 759.257812 229.277344 762.664062 248.425781 765.660156 258.972656 C 770.5625 252.242188 776.027344 246.609375 782.203125 241.910156 C 783.089844 241.234375 784.359375 241.410156 785.03125 242.296875 C 785.707031 243.183594 785.535156 244.449219 784.648438 245.125 C 776.585938 251.261719 769.773438 259.105469 763.863281 269.066406 C 768.386719 272.859375 773.644531 276.3125 779.601562 278.730469 C 793.898438 284.53125 810.785156 284.511719 821.648438 283.636719 C 823.019531 276.429688 823.429688 269.53125 822.871094 262.609375 C 822.78125 261.496094 823.609375 260.523438 824.722656 260.433594 C 825.839844 260.34375 826.808594 261.171875 826.898438 262.285156 C 827.453125 269.203125 827.105469 276.082031 825.839844 283.234375 C 829.304688 282.847656 831.695312 282.433594 832.527344 282.28125 C 839.707031 278.035156 851.171875 269.859375 849.878906 261.554688 Z M 849.878906 261.554688 " fill-opacity="1" fill-rule="nonzero"/><g clip-path="url(#cf72cabaf0)"><path fill="#7ed957" d="M 778.082031 282.476562 C 758.605469 274.570312 746.5 256.890625 742.148438 249.558594 C 737.796875 256.890625 725.6875 274.570312 706.210938 282.476562 C 685.628906 290.824219 660.84375 287.851562 653.0625 286.605469 L 653.0625 407.917969 C 653.0625 420.664062 662.644531 433.808594 680.050781 444.9375 C 696.609375 455.523438 719.230469 463.507812 742.148438 466.859375 C 765.0625 463.507812 787.683594 455.523438 804.242188 444.9375 C 821.648438 433.808594 831.230469 420.664062 831.230469 407.917969 L 831.230469 286.605469 C 823.453125 287.847656 798.664062 290.824219 778.082031 282.476562 Z M 786.699219 381.925781 L 759.445312 381.925781 L 759.445312 409.574219 L 724.851562 409.574219 L 724.851562 381.925781 L 697.59375 381.925781 L 697.59375 346.839844 L 724.851562 346.839844 L 724.851562 319.191406 L 759.445312 319.191406 L 759.445312 346.839844 L 786.699219 346.839844 Z M 786.699219 381.925781 " fill-opacity="1" fill-rule="nonzero"/></g><path fill="#7ed957" d="M 856.429688 330.816406 C 856.472656 330.777344 860.753906 326.417969 860.753906 321.933594 C 860.753906 317.488281 856.941406 313.765625 856.902344 313.730469 C 856.3125 313.160156 856.121094 312.285156 856.425781 311.519531 C 857.050781 309.945312 858.386719 305.28125 857.078125 302.652344 C 856.214844 300.917969 854.105469 299.347656 852.273438 298.265625 C 851.878906 303.542969 850.75 314.269531 847.835938 320.8125 C 844.53125 328.242188 837.65625 334.148438 835.269531 336.046875 L 835.269531 360.585938 C 837.269531 360.703125 840.203125 360.542969 842.042969 359.222656 C 844.363281 357.554688 844.652344 352.449219 844.574219 350.792969 C 844.546875 350.21875 844.761719 349.664062 845.164062 349.261719 C 845.570312 348.859375 846.125 348.648438 846.699219 348.675781 C 848.6875 348.78125 854.320312 348.363281 856.386719 345.289062 C 858.515625 342.121094 856.796875 335.292969 855.953125 332.925781 C 855.691406 332.191406 855.878906 331.367188 856.429688 330.816406 Z M 856.429688 330.816406 " fill-opacity="1" fill-rule="nonzero"/><path fill="#050405" d="M 514.132812 341.488281 C 514.132812 341.488281 507.878906 349.523438 505.375 353.453125 C 505.375 353.453125 502.695312 357.738281 507.699219 362.203125 L 510.558594 362.203125 C 510.558594 362.203125 513.953125 364.34375 510.738281 365.597656 L 507.519531 365.597656 C 507.519531 365.597656 503.5625 365.292969 498.878906 358.371094 C 498.0625 357.160156 497.632812 355.722656 497.632812 354.261719 C 497.636719 352.378906 497.765625 349.804688 498.40625 348.632812 C 498.40625 348.632812 498.789062 348.378906 498.582031 346.132812 C 498.511719 345.347656 497.800781 344.78125 497.019531 344.890625 C 494.476562 345.253906 489.15625 346.089844 487.148438 347.023438 C 487.148438 347.023438 482.855469 348.097656 481.25 356.667969 C 481.25 356.667969 480.535156 357.378906 483.035156 358.632812 C 483.035156 358.632812 485.714844 360.417969 482.679688 361.128906 L 480.175781 361.128906 C 480.175781 361.128906 476.777344 361.128906 476.957031 355.058594 C 476.957031 355.058594 478.390625 346.308594 479.820312 344.703125 L 486.96875 335.777344 L 487.007812 335.707031 C 487.855469 334.230469 488.414062 332.609375 488.691406 330.929688 C 489.152344 328.097656 490.304688 323.339844 493.042969 320.246094 C 493.042969 320.246094 470.167969 316.136719 466.238281 305.066406 C 466.238281 305.066406 463.554688 299.890625 465.785156 292.320312 C 465.9375 291.800781 466.359375 291.402344 466.609375 290.921875 C 468.105469 288.058594 473.847656 278.703125 478.921875 292.386719 C 478.921875 292.386719 479.222656 296.890625 476.246094 294.203125 C 475.78125 293.785156 475.378906 293.296875 475.027344 292.777344 C 474.121094 291.417969 471.519531 288.058594 470.429688 292.207031 C 470.371094 292.4375 470.296875 292.667969 470.214844 292.886719 C 469.308594 295.285156 464.910156 310.417969 497.152344 312.386719 C 497.152344 312.386719 511.625 310.246094 530.929688 315.066406 C 530.929688 315.066406 539.6875 317.207031 550.054688 315.066406 C 550.054688 315.066406 555.949219 312.03125 556.84375 310.246094 C 556.84375 310.246094 560.09375 305.589844 563.699219 304.683594 C 564.683594 304.4375 565.582031 303.9375 566.25 303.175781 L 569.335938 299.632812 C 569.550781 299.386719 569.949219 299.511719 569.992188 299.832031 L 570.40625 303.273438 C 570.519531 304.203125 571.101562 305.003906 571.949219 305.40625 C 573.390625 306.097656 575.492188 307.5625 575.609375 310.246094 C 575.609375 310.246094 577.574219 314.53125 579.363281 316.675781 C 579.363281 316.675781 582.042969 319.886719 578.648438 321.136719 C 578.648438 321.136719 576.859375 323.460938 573.464844 323.101562 C 573.464844 323.101562 567.03125 323.996094 565.78125 330.78125 C 565.78125 330.78125 563.8125 350.777344 579.542969 361.847656 C 579.542969 361.847656 584.902344 362.921875 579.003906 364.527344 L 576.324219 364.707031 C 576.324219 364.707031 555.949219 348.277344 554.339844 344.707031 C 554.339844 344.707031 550.410156 341.671875 544.511719 344.886719 C 544.511719 344.886719 537.542969 354.171875 536.46875 357.742188 L 536.113281 361.136719 C 536.113281 361.136719 540.402344 364.53125 536.113281 365.601562 C 536.113281 365.601562 533.433594 367.207031 532.183594 361.851562 C 532.183594 361.851562 534.550781 349.777344 534 344.660156 C 533.894531 343.699219 533.203125 342.914062 532.265625 342.675781 C 528.484375 341.714844 517.785156 339.300781 514.132812 341.488281 Z M 514.132812 341.488281 " fill-opacity="1" fill-rule="nonzero"/><g clip-path="url(#9f520ab8d4)"><path stroke-linecap="butt" transform="matrix(0.239551, 0, 0, 0.239319, 464.779999, 285.015034)" fill="none" stroke-linejoin="miter" d="M 206.022274 235.975218 C 206.022274 235.975218 179.915475 269.550369 169.462971 285.97069 C 169.462971 285.97069 158.276673 303.876349 179.165373 322.532837 L 191.101773 322.532837 C 191.101773 322.532837 205.272172 331.477505 191.851875 336.716992 L 178.415271 336.716992 C 178.415271 336.716992 161.896728 335.443845 142.345166 306.520575 C 138.937095 301.460635 137.143374 295.453997 137.143374 289.349424 C 137.15968 281.482034 137.697797 270.725581 140.372072 265.828864 C 140.372072 265.828864 141.970115 264.767909 141.105867 255.382537 C 140.812349 252.101737 137.844556 249.734991 134.583244 250.192017 C 123.967675 251.709999 101.758143 255.20299 93.376573 259.104041 C 93.376573 259.104041 75.455666 263.592697 68.75367 299.404015 C 68.75367 299.404015 65.76957 302.374689 76.205767 307.614175 C 76.205767 307.614175 87.392066 315.073506 74.721871 318.044181 L 64.269367 318.044181 C 64.269367 318.044181 50.082662 318.044181 50.832763 292.679191 C 50.832763 292.679191 56.81727 256.117044 62.78547 249.408543 L 92.626471 212.111888 L 92.789537 211.818085 C 96.32806 205.648223 98.659897 198.874432 99.817663 191.855806 C 101.741837 180.022075 106.552271 160.141408 117.983168 147.214077 C 117.983168 147.214077 22.491966 130.042926 6.087569 83.785281 C 6.087569 83.785281 -5.115036 62.158118 4.196008 30.525332 C 4.831964 28.354454 6.593072 26.689571 7.636692 24.681917 C 13.882104 12.717607 37.852744 -26.37451 59.034962 30.802812 C 59.034962 30.802812 60.290567 49.622524 47.86497 38.392722 C 45.92449 36.646227 44.244914 34.605928 42.777324 32.435051 C 38.994203 26.75486 28.134035 12.717607 23.584505 30.051982 C 23.339907 31.015003 23.030083 31.978024 22.687645 32.892078 C 18.904523 42.914023 0.543339 106.146951 135.137667 114.373434 C 135.137667 114.373434 195.553464 105.428766 276.140472 125.570592 C 276.140472 125.570592 312.699775 134.51526 355.977379 125.570592 C 355.977379 125.570592 380.583975 112.888097 384.318176 105.428766 C 384.318176 105.428766 397.885232 85.972481 412.936185 82.185687 C 417.045438 81.157376 420.795946 79.068111 423.584367 75.885245 L 436.466548 61.08084 C 437.363409 60.05253 439.026678 60.574846 439.20605 61.913282 L 440.934545 76.293305 C 441.407435 80.178033 443.837112 83.524123 447.375635 85.205328 C 453.392755 88.094391 462.165683 94.215286 462.65488 105.428766 C 462.65488 105.428766 470.857078 123.334425 478.325482 132.295415 C 478.325482 132.295415 489.51178 145.712417 475.341382 150.935581 C 475.341382 150.935581 467.872978 160.647402 453.70258 159.145742 C 453.70258 159.145742 426.845679 162.883569 421.62758 191.235555 C 421.62758 191.235555 413.409075 274.789855 479.075583 321.0475 C 479.075583 321.0475 501.448181 325.536156 476.825278 332.244658 L 465.63898 332.995487 C 465.63898 332.995487 380.583975 264.343527 373.865673 249.424865 C 373.865673 249.424865 357.461276 236.742371 332.838373 250.175695 C 332.838373 250.175695 303.747474 288.974009 299.263171 303.892671 L 297.779274 318.076826 C 297.779274 318.076826 315.683875 332.26098 297.779274 336.733314 C 297.779274 336.733314 286.592976 343.441815 281.374877 321.063822 C 281.374877 321.063822 291.256651 270.611324 288.957426 249.228997 C 288.517149 245.213689 285.630889 241.93289 281.717315 240.937224 C 265.932567 236.921917 221.268905 226.834682 206.022274 235.975218 Z M 206.022274 235.975218 " stroke="#050405" stroke-width="1" stroke-opacity="1" stroke-miterlimit="10"/></g><g clip-path="url(#37ee43d26c)"><g clip-path="url(#80674be89b)"><g clip-path="url(#7f56febde9)"><path fill="#7ed957" d="M 1292.023438 339.078125 C 1287.414062 345.546875 1279.847656 348.054688 1275.121094 344.6875 C 1270.398438 341.320312 1270.300781 333.347656 1274.910156 326.882812 C 1279.519531 320.417969 1287.085938 317.90625 1291.8125 321.273438 C 1296.535156 324.640625 1296.632812 332.613281 1292.023438 339.078125 Z M 1273.902344 405.796875 C 1272.511719 403.824219 1271.546875 401.664062 1271.019531 399.308594 C 1270.488281 396.953125 1270.429688 394.589844 1270.84375 392.210938 C 1270.917969 391.777344 1270.949219 391.335938 1270.941406 390.894531 C 1270.929688 390.453125 1270.875 390.015625 1270.777344 389.585938 C 1270.679688 389.152344 1270.542969 388.734375 1270.363281 388.332031 C 1270.183594 387.929688 1269.96875 387.546875 1269.710938 387.183594 C 1269.457031 386.824219 1269.167969 386.488281 1268.847656 386.183594 C 1268.527344 385.878906 1268.183594 385.609375 1267.808594 385.375 C 1267.433594 385.136719 1267.042969 384.941406 1266.628906 384.78125 C 1266.214844 384.621094 1265.792969 384.507812 1265.355469 384.429688 C 1264.769531 384.328125 1264.1875 384.199219 1263.613281 384.039062 C 1263.039062 383.882812 1262.472656 383.695312 1261.917969 383.480469 C 1261.363281 383.265625 1260.816406 383.027344 1260.285156 382.757812 C 1259.753906 382.492188 1259.234375 382.199219 1258.730469 381.878906 C 1258.226562 381.5625 1257.742188 381.21875 1257.269531 380.851562 C 1256.800781 380.484375 1256.351562 380.097656 1255.917969 379.6875 C 1255.488281 379.277344 1255.078125 378.84375 1254.6875 378.394531 C 1254.296875 377.945312 1253.929688 377.472656 1253.585938 376.988281 C 1253.242188 376.5 1252.925781 375.996094 1252.632812 375.480469 C 1252.335938 374.960938 1252.070312 374.429688 1251.828125 373.886719 C 1251.585938 373.339844 1251.371094 372.785156 1251.183594 372.21875 C 1250.996094 371.652344 1250.835938 371.082031 1250.707031 370.5 C 1250.574219 369.917969 1250.472656 369.332031 1250.402344 368.742188 C 1250.328125 368.148438 1250.285156 367.554688 1250.269531 366.960938 C 1250.253906 366.363281 1250.269531 365.769531 1250.3125 365.175781 C 1250.355469 364.582031 1250.425781 363.988281 1250.527344 363.402344 C 1250.628906 362.816406 1250.761719 362.234375 1250.917969 361.660156 C 1251.078125 361.085938 1251.265625 360.519531 1251.476562 359.964844 C 1251.691406 359.410156 1251.933594 358.863281 1252.199219 358.332031 C 1252.46875 357.800781 1252.761719 357.28125 1253.078125 356.777344 C 1253.398438 356.273438 1253.742188 355.789062 1254.105469 355.316406 C 1254.472656 354.847656 1254.863281 354.398438 1255.273438 353.964844 C 1255.683594 353.53125 1256.113281 353.121094 1256.566406 352.734375 C 1257.015625 352.34375 1257.484375 351.976562 1257.972656 351.632812 C 1258.457031 351.289062 1258.960938 350.972656 1259.480469 350.675781 C 1260 350.382812 1260.53125 350.117188 1261.074219 349.875 C 1261.617188 349.632812 1262.175781 349.417969 1262.738281 349.230469 C 1263.304688 349.042969 1263.878906 348.882812 1264.460938 348.753906 C 1265.042969 348.621094 1265.628906 348.519531 1266.21875 348.445312 C 1266.808594 348.375 1267.402344 348.328125 1268 348.3125 C 1268.59375 348.300781 1269.191406 348.3125 1269.785156 348.355469 C 1270.378906 348.402344 1270.96875 348.472656 1271.558594 348.574219 C 1272.949219 348.816406 1274.324219 349.121094 1275.6875 349.5 C 1277.046875 349.875 1278.386719 350.316406 1279.707031 350.820312 C 1281.023438 351.328125 1282.3125 351.898438 1283.578125 352.535156 C 1284.839844 353.167969 1286.066406 353.863281 1287.261719 354.617188 C 1288.453125 355.371094 1289.609375 356.183594 1290.722656 357.050781 C 1291.835938 357.917969 1292.90625 358.839844 1293.929688 359.8125 C 1294.953125 360.785156 1295.925781 361.808594 1296.847656 362.875 C 1297.769531 363.945312 1298.640625 365.054688 1299.453125 366.210938 C 1300.269531 367.363281 1301.023438 368.554688 1301.71875 369.785156 C 1302.417969 371.011719 1303.050781 372.273438 1303.625 373.5625 C 1304.199219 374.855469 1304.707031 376.167969 1305.148438 377.511719 C 1305.59375 378.851562 1305.96875 380.210938 1306.28125 381.589844 C 1306.589844 382.964844 1306.832031 384.355469 1307.003906 385.757812 C 1307.179688 387.160156 1307.285156 388.566406 1307.320312 389.976562 C 1307.355469 391.390625 1307.320312 392.800781 1307.214844 394.207031 C 1307.113281 395.617188 1306.941406 397.015625 1306.699219 398.410156 C 1306.546875 399.289062 1306.332031 400.15625 1306.050781 401.003906 C 1305.769531 401.855469 1305.429688 402.679688 1305.027344 403.480469 C 1304.625 404.277344 1304.167969 405.042969 1303.652344 405.777344 C 1303.140625 406.507812 1302.574219 407.199219 1301.957031 407.847656 C 1301.339844 408.496094 1300.679688 409.09375 1299.972656 409.644531 C 1299.269531 410.195312 1298.527344 410.691406 1297.75 411.136719 C 1296.972656 411.578125 1296.164062 411.957031 1295.332031 412.28125 C 1294.496094 412.601562 1293.640625 412.863281 1292.769531 413.058594 C 1291.894531 413.257812 1291.015625 413.386719 1290.121094 413.453125 C 1289.230469 413.519531 1288.335938 413.519531 1287.445312 413.457031 C 1286.550781 413.390625 1285.667969 413.261719 1284.796875 413.0625 C 1283.921875 412.867188 1283.070312 412.609375 1282.234375 412.289062 C 1281.398438 411.96875 1280.59375 411.585938 1279.8125 411.144531 C 1279.035156 410.707031 1278.292969 410.210938 1277.585938 409.660156 C 1276.882812 409.109375 1276.21875 408.511719 1275.601562 407.863281 C 1274.984375 407.214844 1274.417969 406.527344 1273.902344 405.796875 Z M 1316.394531 352.03125 C 1309.503906 357.9375 1300.414062 358.644531 1296.097656 353.609375 C 1291.78125 348.570312 1293.871094 339.695312 1300.761719 333.789062 C 1307.652344 327.882812 1316.738281 327.179688 1321.058594 332.21875 C 1325.375 337.253906 1323.285156 346.125 1316.394531 352.03125 Z M 1318.496094 355.011719 C 1310.621094 359.523438 1306.902344 367.84375 1310.199219 373.601562 C 1313.492188 379.359375 1322.550781 380.371094 1330.429688 375.859375 C 1338.308594 371.351562 1342.023438 363.03125 1338.726562 357.273438 C 1335.433594 351.515625 1326.375 350.503906 1318.496094 355.011719 Z M 1322.515625 382.316406 C 1314.878906 384.488281 1309.96875 390.773438 1311.558594 396.355469 C 1313.144531 401.9375 1320.621094 404.703125 1328.257812 402.535156 C 1335.894531 400.363281 1340.800781 394.078125 1339.214844 388.496094 C 1337.628906 382.914062 1330.152344 380.148438 1322.515625 382.316406 Z M 1322.515625 382.316406 " fill-opacity="1" fill-rule="nonzero"/></g></g></g><path stroke-linecap="butt" transform="matrix(0.75, 0, 0, 0.75, 204.106374, 319.875004)" fill="none" stroke-linejoin="miter" d="M 65.748797 176.151045 C 81.993589 176.151045 102.004007 172.578128 111.613383 168.963545 C 113.243591 168.171878 114.712341 166.38542 114.550883 164.119795 C 114.035258 152.562502 113.717549 141.166669 112.925883 129.614585 C 112.566508 124.729168 108.519632 124.093751 106.254007 126.869793 C 95.64984 137.593752 84.295673 141.645835 70.477964 141.645835 C 54.83213 141.645835 44.743588 134.812502 44.743588 120.203126 C 44.743588 101.65625 53.36338 91.890624 68.48838 91.890624 C 80.045673 91.890624 88.186298 96.098958 95.175882 103.125 C 97.639424 105.864583 101.050882 105.072917 101.530049 101.338542 C 102.483174 94.151041 103.790465 80.015624 104.785257 72.86979 C 105.102966 70.562498 104.467549 68.458332 102.321715 67.30729 C 92.910257 62.61979 81.358173 59.843748 66.227964 59.843748 C 28.186295 59.843748 2.13421 84.421874 2.13421 122.625001 C 2.13421 162.13542 28.342545 176.151045 65.748797 176.151045 Z M 170.629011 175.63542 C 185.75922 175.63542 212.920679 175.63542 223.837347 175.000004 C 226.42068 174.843754 228.207138 172.895837 228.050888 170.432295 C 227.73318 160.031253 226.57693 137.432293 225.467555 126.869793 C 225.149847 122.145834 220.10818 121.312501 217.806096 125.083334 C 209.504012 138.06771 200.889429 142.31771 184.129011 142.31771 C 169.993594 142.31771 162.84776 136.760418 162.84776 125.880209 C 162.686302 105.072917 166.576927 89.109374 171.462344 66.515623 C 172.097761 63.890623 169.832135 61.468748 166.894635 61.15104 C 161.69151 60.677081 157.326927 60.479164 151.290468 60.479164 C 142.670676 60.479164 136.321717 60.479164 129.649842 61.15104 C 127.227967 61.468748 125.28005 62.781248 124.920675 65.203123 C 122.660258 90.416666 121.03005 133.541668 120.712341 170.276045 C 120.712341 172.895837 122.816508 174.843754 125.441508 175.000004 C 134.21755 175.63542 158.915468 175.63542 170.629011 175.63542 Z M 259.436307 54.322914 C 262.535265 54.322914 264.639432 53.328122 266.587349 51.067706 L 279.134224 37.249997 C 282.707141 33.83333 281.238391 30.062496 275.879016 30.062496 L 262.852973 30.062496 C 259.436307 30.062496 257.17589 31.369788 255.70714 34.307288 L 249.352973 47.17708 C 247.087348 51.223956 248.873806 54.322914 253.759223 54.322914 Z M 256.181098 175.63542 C 260.587348 175.63542 269.681099 175.473962 274.248807 175.000004 C 276.670683 174.682295 278.972766 172.895837 278.972766 170.114587 C 278.972766 131.083335 277.347766 89.463541 275.201932 65.364581 C 275.045682 63.098956 273.254016 61.630206 270.832141 61.15104 C 266.941515 60.677081 259.915473 60.479164 256.342556 60.479164 C 252.92589 60.479164 245.618598 60.677081 241.566514 61.15104 C 239.108181 61.630206 237.321722 63.098956 237.160264 65.364581 C 235.056097 89.463541 233.587347 131.083335 233.587347 170.114587 C 233.587347 172.895837 235.691514 174.682295 238.155056 175.000004 C 242.681097 175.473962 251.972765 175.63542 256.181098 175.63542 Z M 382.394646 176.312504 C 394.587355 176.312504 398.837355 166.703128 398.675897 154.031253 C 398.519647 117.739584 396.57173 87.005208 394.587355 65.364581 C 394.269647 62.937498 392.32173 61.468748 389.899855 61.15104 C 385.493605 60.677081 378.983188 60.479164 375.248812 60.479164 C 371.358187 60.479164 364.842562 60.677081 360.75402 61.15104 C 357.696728 61.630206 355.550895 64.093748 356.227978 67.15104 C 358.806103 80.015624 362.384228 107.494792 355.91027 107.494792 C 348.243603 107.494792 333.951935 80.015624 327.118602 67.666665 C 323.707143 63.255206 321.082143 61.630206 316.358185 61.15104 C 313.102976 60.677081 308.733184 60.479164 305.957142 60.479164 C 303.535267 60.479164 297.019642 60.677081 294.238392 61.15104 C 291.816517 61.630206 290.030058 62.937498 289.873808 65.364581 C 287.571725 89.463541 285.3061 131.083335 285.3061 170.114587 C 285.3061 172.734378 287.410266 174.526045 290.030058 175.000004 C 295.076933 175.63542 302.540475 175.63542 306.790476 175.63542 C 311.316518 175.63542 319.774851 175.63542 324.660268 175.000004 C 327.597768 174.526045 329.858185 172.734378 329.384227 169.47917 C 328.74881 161.973961 326.764435 147.838544 326.764435 139.22396 C 326.920685 132.072918 328.233185 126.869793 331.488394 126.869793 C 343.045686 126.869793 355.394645 176.312504 382.394646 176.312504 Z M 427.76444 175.63542 C 432.175899 175.63542 441.269649 175.473962 445.832149 175.000004 C 448.259233 174.682295 450.561316 172.895837 450.561316 170.114587 C 450.561316 131.083335 448.931108 89.463541 446.785274 65.364581 C 446.629024 63.098956 444.842566 61.630206 442.420691 61.15104 C 438.530066 60.677081 431.498815 60.479164 427.925898 60.479164 C 424.509232 60.479164 417.20194 60.677081 413.155064 61.15104 C 410.691523 61.630206 408.905064 63.098956 408.743606 65.364581 C 406.639439 89.463541 405.170689 131.083335 405.170689 170.114587 C 405.170689 172.895837 407.274856 174.682295 409.738398 175.000004 C 414.264439 175.473962 423.556107 175.63542 427.76444 175.63542 Z M 519.352986 176.151045 C 535.597779 176.151045 555.608197 172.578128 565.217572 168.963545 C 566.84778 168.171878 568.316531 166.38542 568.160281 164.119795 C 567.639447 152.562502 567.321739 141.166669 566.530072 129.614585 C 566.170697 124.729168 562.123822 124.093751 559.858197 126.869793 C 549.25403 137.593752 537.899862 141.645835 524.082153 141.645835 C 508.436319 141.645835 498.347777 134.812502 498.347777 120.203126 C 498.347777 101.65625 506.967569 91.890624 522.09257 91.890624 C 533.649862 91.890624 541.790488 96.098958 548.780071 103.125 C 551.243613 105.864583 554.655071 105.072917 555.134238 101.338542 C 556.087363 94.151041 557.394655 80.015624 558.389447 72.86979 C 558.707155 70.562498 558.071738 68.458332 555.925905 67.30729 C 546.514446 62.61979 534.962362 59.843748 519.832153 59.843748 C 481.790484 59.843748 455.7384 84.421874 455.7384 122.625001 C 455.7384 162.13542 481.946735 176.151045 519.352986 176.151045 Z M 593.655073 175.63542 C 598.701949 175.63542 608.311324 175.473962 613.191533 175.000004 C 615.457158 174.682295 617.561325 172.895837 617.405075 170.276045 C 616.925908 164.755211 617.087366 158.244794 617.759241 153.677086 C 618.712366 148.000002 623.915492 145.572919 629.634242 145.416669 L 635.790492 145.416669 C 641.665493 145.572919 646.868618 147.682294 647.821743 153.677086 C 648.337368 158.401044 648.493618 164.911461 648.17591 170.114587 C 647.821743 172.895837 649.962368 174.682295 652.227993 175.000004 C 656.951952 175.473962 666.045702 175.63542 670.295702 175.63542 C 674.665494 175.63542 684.27487 175.473962 688.998828 175.000004 C 691.738412 174.843754 693.52487 172.734378 692.889453 169.958337 C 686.217578 130.765626 671.727994 87.994791 660.368618 63.890623 C 659.691535 62.265623 658.222785 61.468748 656.436327 61.15104 C 650.123826 60.479164 638.566534 60.479164 632.530075 60.479164 C 626.379033 60.479164 615.13945 60.479164 609.102991 61.15104 C 607.316532 61.468748 605.889449 62.265623 605.212366 63.890623 C 593.816532 87.994791 579.201948 130.765626 572.530072 169.796878 C 571.858197 172.578128 573.681114 174.682295 576.582156 175.000004 C 580.988406 175.317712 589.129032 175.63542 593.655073 175.63542 Z M 631.259242 129.614585 C 626.217575 129.453126 623.597783 127.031251 624.748825 122.942709 C 625.863408 115.000001 628.004034 104.911458 629.95195 96.770833 C 631.57695 91.572916 633.842575 91.572916 635.311326 96.770833 C 637.415492 104.911458 639.717576 115.000001 640.670701 122.942709 C 641.826951 127.031251 639.363409 129.453126 634.321742 129.614585 Z M 793.056125 175.63542 C 808.181126 175.63542 835.342586 175.63542 846.264461 175.000004 C 848.847795 174.843754 850.634253 172.895837 850.472795 170.432295 C 850.155086 160.031253 849.004045 137.432293 847.89467 126.869793 C 847.576961 122.145834 842.530086 121.312501 840.228003 125.083334 C 831.931127 138.06771 823.311335 142.31771 806.556126 142.31771 C 792.420708 142.31771 785.269666 136.760418 785.269666 125.880209 C 785.113416 105.072917 789.004042 89.109374 793.889459 66.515623 C 794.524875 63.890623 792.25925 61.468748 789.32175 61.15104 C 784.118625 60.677081 779.754041 60.479164 773.717583 60.479164 C 765.09779 60.479164 758.743623 60.479164 752.071748 61.15104 C 749.649873 61.468748 747.707165 62.781248 747.34779 65.203123 C 745.087373 90.416666 743.457164 133.541668 743.139456 170.276045 C 743.139456 172.895837 745.243623 174.843754 747.863415 175.000004 C 756.639457 175.63542 781.337375 175.63542 793.056125 175.63542 Z M 914.743631 176.312504 C 950.519675 176.312504 974.743634 162.807295 974.743634 122.942709 C 974.743634 83.588541 950.681133 59.843748 914.743631 59.843748 C 878.925921 59.999998 854.701962 83.588541 854.701962 122.942709 C 854.701962 162.807295 879.123838 176.312504 914.743631 176.312504 Z M 914.743631 142.953127 C 904.655089 142.953127 897.629047 136.958335 897.629047 121.312501 C 897.629047 105.546875 904.300922 93.197916 914.743631 93.197916 C 925.144673 93.197916 931.816549 105.390625 931.816549 121.312501 C 931.816549 136.958335 924.826965 142.953127 914.743631 142.953127 Z M 1042.405096 176.151045 C 1058.649889 176.151045 1078.660306 172.578128 1088.269682 168.963545 C 1089.89989 168.171878 1091.36864 166.38542 1091.21239 164.119795 C 1090.691557 152.562502 1090.373848 141.166669 1089.582182 129.614585 C 1089.222807 124.729168 1085.175932 124.093751 1082.910306 126.869793 C 1072.306139 137.593752 1060.951972 141.645835 1047.134263 141.645835 C 1031.488429 141.645835 1021.399887 134.812502 1021.399887 120.203126 C 1021.399887 101.65625 1030.019679 91.890624 1045.14468 91.890624 C 1056.701972 91.890624 1064.842597 96.098958 1071.832181 103.125 C 1074.295723 105.864583 1077.707181 105.072917 1078.186348 101.338542 C 1079.139473 94.151041 1080.446765 80.015624 1081.441556 72.86979 C 1081.759265 70.562498 1081.123848 68.458332 1078.978015 67.30729 C 1069.566556 62.61979 1058.014472 59.843748 1042.884263 59.843748 C 1004.842594 59.843748 978.79051 84.421874 978.79051 122.625001 C 978.79051 162.13542 1004.998844 176.151045 1042.405096 176.151045 Z M 1149.431143 176.312504 C 1178.535311 176.312504 1211.056146 169.32292 1211.056146 146.687502 C 1211.056146 133.541668 1198.550937 119.843751 1171.863436 114.802084 C 1168.608227 113.848959 1168.769686 111.583334 1171.863436 110.432292 C 1193.50927 106.182292 1205.540521 95.145833 1205.540521 82.953124 C 1205.540521 67.666665 1189.733228 60.317706 1159.514477 60.317706 C 1140.613434 60.317706 1124.056142 60.161456 1105.826974 61.15104 C 1103.368641 61.312498 1101.780099 62.937498 1101.582182 65.203123 C 1099.472807 89.265624 1097.36864 130.765626 1097.36864 169.640628 C 1097.36864 172.380212 1099.472807 174.843754 1102.415516 175.000004 C 1113.134266 175.63542 1137.556142 176.312504 1149.431143 176.312504 Z M 1144.228018 107.177084 C 1141.446768 107.651042 1139.504059 106.541667 1139.504059 103.760417 C 1139.342601 99.510416 1139.342601 94.984375 1139.504059 90.734374 C 1139.504059 88.156249 1141.129059 86.687499 1144.030101 86.687499 C 1145.858226 86.526041 1148.59781 86.526041 1150.899893 86.526041 C 1159.832185 86.526041 1164.561352 89.109374 1164.561352 94.46875 C 1164.561352 99.708333 1159.514477 105.072917 1144.228018 107.177084 Z M 1144.863435 145.890627 C 1141.446768 145.890627 1139.504059 144.104169 1139.504059 140.69271 C 1139.342601 135.489585 1139.342601 130.28646 1139.504059 125.083334 C 1139.504059 121.989584 1141.290518 120.203126 1144.384268 120.838543 C 1159.832185 122.781251 1168.608227 128.302085 1168.608227 135.328127 C 1168.608227 142.16146 1163.087394 146.052085 1154.47281 146.052085 C 1151.69156 146.052085 1147.644685 146.052085 1144.863435 145.890627 Z M 1274.993649 176.312504 C 1310.769693 176.312504 1334.993652 162.807295 1334.993652 122.942709 C 1334.993652 83.588541 1310.925943 59.843748 1274.993649 59.843748 C 1239.170731 59.999998 1214.95198 83.588541 1214.95198 122.942709 C 1214.95198 162.807295 1239.373856 176.312504 1274.993649 176.312504 Z M 1274.993649 142.953127 C 1264.905107 142.953127 1257.873857 136.958335 1257.873857 121.312501 C 1257.873857 105.546875 1264.545732 93.197916 1274.993649 93.197916 C 1285.394692 93.197916 1292.066567 105.390625 1292.066567 121.312501 C 1292.066567 136.958335 1285.076983 142.953127 1274.993649 142.953127 Z M 1394.675947 175.63542 C 1399.556156 175.63542 1409.170739 175.473962 1413.696781 175.000004 C 1416.155115 174.682295 1418.42074 172.895837 1418.103032 170.432295 C 1416.634282 157.609378 1414.368656 144.901044 1411.431156 128.979168 C 1410.957198 127.187501 1411.113448 125.718751 1413.061365 125.244793 C 1432.556157 120.359376 1447.530116 92.880208 1449.98845 66.833331 C 1450.306158 63.890623 1448.5197 61.630206 1445.420741 61.15104 C 1440.540533 60.479164 1433.550949 60.479164 1429.144699 60.479164 C 1424.774907 60.479164 1414.847823 60.677081 1409.962406 61.15104 C 1407.379073 61.630206 1405.394698 63.416665 1405.394698 66.197915 C 1405.238448 81.958332 1400.550947 107.8125 1394.19678 107.96875 C 1387.842613 107.96875 1383.118655 82.119791 1382.800946 66.197915 C 1382.962405 63.416665 1381.014488 61.468748 1378.233238 61.15104 C 1373.030113 60.677081 1363.103029 60.479164 1358.894695 60.479164 C 1354.488445 60.479164 1347.498861 60.677081 1342.972819 61.15104 C 1339.873861 61.630206 1338.087403 63.890623 1338.248861 66.833331 C 1340.191569 93.041666 1355.800945 120.359376 1375.493654 125.244793 C 1377.441571 125.718751 1377.597821 127.187501 1377.280113 128.81771 C 1374.186363 144.901044 1371.920738 157.765628 1370.290529 170.432295 C 1370.134279 172.895837 1372.238446 174.682295 1374.660321 175.000004 C 1379.701988 175.473962 1389.472822 175.63542 1394.675947 175.63542 Z M 1394.675947 175.63542 " stroke="#157900" stroke-width="12.199275" stroke-opacity="1" stroke-miterlimit="4"/><g fill="#7ed957" fill-opacity="1"><g transform="translate(204.129811, 451.124997)"><g><path d="M 49.28125 0.855469 C 61.480469 0.855469 76.484375 -1.828125 83.683594 -4.511719 C 84.902344 -5.125 86 -6.464844 85.878906 -8.171875 C 85.511719 -16.835938 85.269531 -25.375 84.660156 -34.035156 C 84.414062 -37.695312 81.367188 -38.183594 79.65625 -36.109375 C 71.730469 -28.058594 63.191406 -25.007812 52.820312 -25.007812 C 41.109375 -25.007812 33.546875 -30.132812 33.546875 -41.109375 C 33.546875 -55.015625 40.011719 -62.335938 51.355469 -62.335938 C 60.019531 -62.335938 66.117188 -59.164062 71.363281 -53.917969 C 73.191406 -51.84375 75.753906 -52.453125 76.121094 -55.261719 C 76.851562 -60.628906 77.828125 -71.242188 78.558594 -76.609375 C 78.804688 -78.316406 78.316406 -79.902344 76.730469 -80.753906 C 69.65625 -84.292969 60.992188 -86.367188 49.648438 -86.367188 C 21.105469 -86.367188 1.585938 -67.945312 1.585938 -39.28125 C 1.585938 -9.636719 21.226562 0.855469 49.28125 0.855469 Z M 49.28125 0.855469 "/></g></g></g><g fill="#7ed957" fill-opacity="1"><g transform="translate(292.19968, 451.124997)"><g><path d="M 39.890625 0.488281 C 51.234375 0.488281 71.605469 0.488281 79.78125 0 C 81.730469 -0.121094 83.074219 -1.585938 82.953125 -3.414062 C 82.707031 -11.222656 81.855469 -28.179688 81 -36.109375 C 80.753906 -39.644531 76.972656 -40.257812 75.265625 -37.449219 C 69.046875 -27.691406 62.578125 -24.519531 50.015625 -24.519531 C 39.402344 -24.519531 34.035156 -28.667969 34.035156 -36.839844 C 33.914062 -52.453125 36.839844 -64.410156 40.5 -81.367188 C 40.988281 -83.316406 39.28125 -85.148438 37.085938 -85.390625 C 33.179688 -85.757812 29.886719 -85.878906 25.375 -85.878906 C 18.90625 -85.878906 14.152344 -85.878906 9.148438 -85.390625 C 7.320312 -85.148438 5.855469 -84.171875 5.613281 -82.339844 C 3.902344 -63.433594 2.683594 -31.105469 2.441406 -3.539062 C 2.441406 -1.585938 4.027344 -0.121094 5.976562 0 C 12.566406 0.488281 31.105469 0.488281 39.890625 0.488281 Z M 39.890625 0.488281 "/></g></g></g><g fill="#7ed957" fill-opacity="1"><g transform="translate(376.854095, 451.124997)"><g><path d="M 21.835938 -90.515625 C 24.152344 -90.515625 25.738281 -91.246094 27.203125 -92.953125 L 36.597656 -103.324219 C 39.28125 -105.886719 38.183594 -108.691406 34.15625 -108.691406 L 24.398438 -108.691406 C 21.835938 -108.691406 20.128906 -107.714844 19.03125 -105.519531 L 14.273438 -95.882812 C 12.566406 -92.832031 13.90625 -90.515625 17.566406 -90.515625 Z M 19.394531 0.488281 C 22.691406 0.488281 29.519531 0.367188 32.9375 0 C 34.765625 -0.242188 36.472656 -1.585938 36.472656 -3.660156 C 36.472656 -32.9375 35.253906 -64.164062 33.667969 -82.21875 C 33.546875 -83.925781 32.203125 -85.023438 30.375 -85.390625 C 27.445312 -85.757812 22.203125 -85.878906 19.519531 -85.878906 C 16.957031 -85.878906 11.46875 -85.757812 8.417969 -85.390625 C 6.585938 -85.023438 5.246094 -83.925781 5.125 -82.21875 C 3.539062 -64.164062 2.441406 -32.9375 2.441406 -3.660156 C 2.441406 -1.585938 4.027344 -0.242188 5.855469 0 C 9.269531 0.367188 16.222656 0.488281 19.394531 0.488281 Z M 19.394531 0.488281 "/></g></g></g><g fill="#7ed957" fill-opacity="1"><g transform="translate(415.643854, 451.124997)"><g><path d="M 75.265625 0.976562 C 84.414062 0.976562 87.585938 -6.222656 87.464844 -15.738281 C 87.34375 -42.941406 85.878906 -65.996094 84.414062 -82.21875 C 84.171875 -84.050781 82.707031 -85.148438 80.878906 -85.390625 C 77.585938 -85.757812 72.703125 -85.878906 69.898438 -85.878906 C 66.972656 -85.878906 62.089844 -85.757812 59.042969 -85.390625 C 56.722656 -85.023438 55.136719 -83.195312 55.625 -80.878906 C 57.578125 -71.242188 60.261719 -50.625 55.382812 -50.625 C 49.648438 -50.625 38.914062 -71.242188 33.789062 -80.511719 C 31.230469 -83.804688 29.277344 -85.023438 25.738281 -85.390625 C 23.300781 -85.757812 20.007812 -85.878906 17.933594 -85.878906 C 16.101562 -85.878906 11.222656 -85.757812 9.148438 -85.390625 C 7.320312 -85.023438 5.976562 -84.050781 5.855469 -82.21875 C 4.148438 -64.164062 2.441406 -32.9375 2.441406 -3.660156 C 2.441406 -1.707031 4.027344 -0.367188 5.976562 0 C 9.757812 0.488281 15.371094 0.488281 18.542969 0.488281 C 21.957031 0.488281 28.300781 0.488281 31.960938 0 C 34.15625 -0.367188 35.863281 -1.707031 35.5 -4.148438 C 35.011719 -9.757812 33.546875 -20.371094 33.546875 -26.835938 C 33.667969 -32.203125 34.644531 -36.109375 37.085938 -36.109375 C 45.746094 -36.109375 55.015625 0.976562 75.265625 0.976562 Z M 75.265625 0.976562 "/></g></g></g><g fill="#7ed957" fill-opacity="1"><g transform="translate(505.543416, 451.124997)"><g><path d="M 19.394531 0.488281 C 22.691406 0.488281 29.519531 0.367188 32.9375 0 C 34.765625 -0.242188 36.472656 -1.585938 36.472656 -3.660156 C 36.472656 -32.9375 35.253906 -64.164062 33.667969 -82.21875 C 33.546875 -83.925781 32.203125 -85.023438 30.375 -85.390625 C 27.445312 -85.757812 22.203125 -85.878906 19.519531 -85.878906 C 16.957031 -85.878906 11.46875 -85.757812 8.417969 -85.390625 C 6.585938 -85.023438 5.246094 -83.925781 5.125 -82.21875 C 3.539062 -64.164062 2.441406 -32.9375 2.441406 -3.660156 C 2.441406 -1.585938 4.027344 -0.242188 5.855469 0 C 9.269531 0.367188 16.222656 0.488281 19.394531 0.488281 Z M 19.394531 0.488281 "/></g></g></g><g fill="#7ed957" fill-opacity="1"><g transform="translate(544.333186, 451.124997)"><g><path d="M 49.28125 0.855469 C 61.480469 0.855469 76.484375 -1.828125 83.683594 -4.511719 C 84.902344 -5.125 86 -6.464844 85.878906 -8.171875 C 85.511719 -16.835938 85.269531 -25.375 84.660156 -34.035156 C 84.414062 -37.695312 81.367188 -38.183594 79.65625 -36.109375 C 71.730469 -28.058594 63.191406 -25.007812 52.820312 -25.007812 C 41.109375 -25.007812 33.546875 -30.132812 33.546875 -41.109375 C 33.546875 -55.015625 40.011719 -62.335938 51.355469 -62.335938 C 60.019531 -62.335938 66.117188 -59.164062 71.363281 -53.917969 C 73.191406 -51.84375 75.753906 -52.453125 76.121094 -55.261719 C 76.851562 -60.628906 77.828125 -71.242188 78.558594 -76.609375 C 78.804688 -78.316406 78.316406 -79.902344 76.730469 -80.753906 C 69.65625 -84.292969 60.992188 -86.367188 49.648438 -86.367188 C 21.105469 -86.367188 1.585938 -67.945312 1.585938 -39.28125 C 1.585938 -9.636719 21.226562 0.855469 49.28125 0.855469 Z M 49.28125 0.855469 "/></g></g></g><g fill="#7ed957" fill-opacity="1"><g transform="translate(632.403044, 451.124997)"><g><path d="M 16.957031 0.488281 C 20.738281 0.488281 27.933594 0.367188 31.59375 0 C 33.300781 -0.242188 34.886719 -1.585938 34.765625 -3.539062 C 34.402344 -7.683594 34.523438 -12.566406 35.011719 -15.980469 C 35.742188 -20.25 39.644531 -22.078125 43.914062 -22.203125 L 48.550781 -22.203125 C 52.941406 -22.078125 56.847656 -20.492188 57.578125 -15.980469 C 57.945312 -12.441406 58.066406 -7.5625 57.820312 -3.660156 C 57.578125 -1.585938 59.164062 -0.242188 60.871094 0 C 64.410156 0.367188 71.242188 0.488281 74.414062 0.488281 C 77.707031 0.488281 84.902344 0.367188 88.441406 0 C 90.515625 -0.121094 91.855469 -1.707031 91.367188 -3.78125 C 86.367188 -33.179688 75.511719 -65.261719 66.972656 -83.316406 C 66.484375 -84.539062 65.386719 -85.148438 64.042969 -85.390625 C 59.285156 -85.878906 50.625 -85.878906 46.109375 -85.878906 C 41.476562 -85.878906 33.058594 -85.878906 28.546875 -85.390625 C 27.203125 -85.148438 26.105469 -84.539062 25.617188 -83.316406 C 17.078125 -65.261719 6.097656 -33.179688 1.097656 -3.902344 C 0.609375 -1.828125 1.953125 -0.242188 4.148438 0 C 7.441406 0.242188 13.539062 0.488281 16.957031 0.488281 Z M 45.136719 -34.035156 C 41.355469 -34.15625 39.402344 -35.984375 40.257812 -39.035156 C 41.109375 -45.011719 42.695312 -52.578125 44.160156 -58.675781 C 45.378906 -62.578125 47.085938 -62.578125 48.183594 -58.675781 C 49.769531 -52.578125 51.480469 -45.011719 52.210938 -39.035156 C 53.066406 -35.984375 51.234375 -34.15625 47.453125 -34.035156 Z M 45.136719 -34.035156 "/></g></g></g><g fill="#7ed957" fill-opacity="1"><g transform="translate(724.864206, 451.124997)"><g/></g></g><g fill="#7ed957" fill-opacity="1"><g transform="translate(759.01873, 451.124997)"><g><path d="M 39.890625 0.488281 C 51.234375 0.488281 71.605469 0.488281 79.78125 0 C 81.730469 -0.121094 83.074219 -1.585938 82.953125 -3.414062 C 82.707031 -11.222656 81.855469 -28.179688 81 -36.109375 C 80.753906 -39.644531 76.972656 -40.257812 75.265625 -37.449219 C 69.046875 -27.691406 62.578125 -24.519531 50.015625 -24.519531 C 39.402344 -24.519531 34.035156 -28.667969 34.035156 -36.839844 C 33.914062 -52.453125 36.839844 -64.410156 40.5 -81.367188 C 40.988281 -83.316406 39.28125 -85.148438 37.085938 -85.390625 C 33.179688 -85.757812 29.886719 -85.878906 25.375 -85.878906 C 18.90625 -85.878906 14.152344 -85.878906 9.148438 -85.390625 C 7.320312 -85.148438 5.855469 -84.171875 5.613281 -82.339844 C 3.902344 -63.433594 2.683594 -31.105469 2.441406 -3.539062 C 2.441406 -1.585938 4.027344 -0.121094 5.976562 0 C 12.566406 0.488281 31.105469 0.488281 39.890625 0.488281 Z M 39.890625 0.488281 "/></g></g></g><g fill="#7ed957" fill-opacity="1"><g transform="translate(843.673145, 451.124997)"><g><path d="M 46.476562 0.976562 C 73.316406 0.976562 91.492188 -9.148438 91.492188 -39.035156 C 91.492188 -68.558594 73.4375 -86.367188 46.476562 -86.367188 C 19.640625 -86.246094 1.464844 -68.558594 1.464844 -39.035156 C 1.464844 -9.148438 19.761719 0.976562 46.476562 0.976562 Z M 46.476562 -24.03125 C 38.914062 -24.03125 33.667969 -28.546875 33.667969 -40.257812 C 33.667969 -52.089844 38.671875 -61.359375 46.476562 -61.359375 C 54.285156 -61.359375 59.285156 -52.210938 59.285156 -40.257812 C 59.285156 -28.546875 54.039062 -24.03125 46.476562 -24.03125 Z M 46.476562 -24.03125 "/></g></g></g><g fill="#7ed957" fill-opacity="1"><g transform="translate(936.622237, 451.124997)"><g><path d="M 49.28125 0.855469 C 61.480469 0.855469 76.484375 -1.828125 83.683594 -4.511719 C 84.902344 -5.125 86 -6.464844 85.878906 -8.171875 C 85.511719 -16.835938 85.269531 -25.375 84.660156 -34.035156 C 84.414062 -37.695312 81.367188 -38.183594 79.65625 -36.109375 C 71.730469 -28.058594 63.191406 -25.007812 52.820312 -25.007812 C 41.109375 -25.007812 33.546875 -30.132812 33.546875 -41.109375 C 33.546875 -55.015625 40.011719 -62.335938 51.355469 -62.335938 C 60.019531 -62.335938 66.117188 -59.164062 71.363281 -53.917969 C 73.191406 -51.84375 75.753906 -52.453125 76.121094 -55.261719 C 76.851562 -60.628906 77.828125 -71.242188 78.558594 -76.609375 C 78.804688 -78.316406 78.316406 -79.902344 76.730469 -80.753906 C 69.65625 -84.292969 60.992188 -86.367188 49.648438 -86.367188 C 21.105469 -86.367188 1.585938 -67.945312 1.585938 -39.28125 C 1.585938 -9.636719 21.226562 0.855469 49.28125 0.855469 Z M 49.28125 0.855469 "/></g></g></g><g fill="#7ed957" fill-opacity="1"><g transform="translate(1024.692118, 451.124997)"><g><path d="M 41.476562 0.976562 C 63.3125 0.976562 87.710938 -4.269531 87.710938 -21.226562 C 87.710938 -31.105469 78.316406 -41.355469 58.308594 -45.136719 C 55.871094 -45.867188 55.992188 -47.574219 58.308594 -48.429688 C 74.535156 -51.601562 83.5625 -59.894531 83.5625 -69.046875 C 83.5625 -80.511719 71.730469 -86 49.039062 -86 C 34.886719 -86 22.445312 -86.125 8.78125 -85.390625 C 6.953125 -85.269531 5.734375 -84.050781 5.613281 -82.339844 C 4.027344 -64.289062 2.441406 -33.179688 2.441406 -4.027344 C 2.441406 -1.953125 4.027344 -0.121094 6.222656 0 C 14.273438 0.488281 32.570312 0.976562 41.476562 0.976562 Z M 37.570312 -50.867188 C 35.5 -50.503906 34.035156 -51.355469 34.035156 -53.429688 C 33.914062 -56.601562 33.914062 -60.019531 34.035156 -63.191406 C 34.035156 -65.140625 35.253906 -66.238281 37.449219 -66.238281 C 38.792969 -66.359375 40.867188 -66.359375 42.574219 -66.359375 C 49.28125 -66.359375 52.820312 -64.410156 52.820312 -60.382812 C 52.820312 -56.480469 49.039062 -52.453125 37.570312 -50.867188 Z M 38.058594 -21.835938 C 35.5 -21.835938 34.035156 -23.175781 34.035156 -25.738281 C 33.914062 -29.644531 33.914062 -33.546875 34.035156 -37.449219 C 34.035156 -39.769531 35.375 -41.109375 37.695312 -40.621094 C 49.28125 -39.15625 55.871094 -35.011719 55.871094 -29.765625 C 55.871094 -24.640625 51.722656 -21.714844 45.257812 -21.714844 C 43.183594 -21.714844 40.132812 -21.714844 38.058594 -21.835938 Z M 38.058594 -21.835938 "/></g></g></g><g fill="#7ed957" fill-opacity="1"><g transform="translate(1113.859808, 451.124997)"><g><path d="M 46.476562 0.976562 C 73.316406 0.976562 91.492188 -9.148438 91.492188 -39.035156 C 91.492188 -68.558594 73.4375 -86.367188 46.476562 -86.367188 C 19.640625 -86.246094 1.464844 -68.558594 1.464844 -39.035156 C 1.464844 -9.148438 19.761719 0.976562 46.476562 0.976562 Z M 46.476562 -24.03125 C 38.914062 -24.03125 33.667969 -28.546875 33.667969 -40.257812 C 33.667969 -52.089844 38.671875 -61.359375 46.476562 -61.359375 C 54.285156 -61.359375 59.285156 -52.210938 59.285156 -40.257812 C 59.285156 -28.546875 54.039062 -24.03125 46.476562 -24.03125 Z M 46.476562 -24.03125 "/></g></g></g><g fill="#7ed957" fill-opacity="1"><g transform="translate(1206.8089, 451.124997)"><g><path d="M 43.304688 0.488281 C 46.964844 0.488281 54.164062 0.367188 57.578125 0 C 59.40625 -0.242188 61.117188 -1.585938 60.871094 -3.414062 C 59.773438 -13.050781 58.066406 -22.566406 55.871094 -34.523438 C 55.503906 -35.863281 55.625 -36.960938 57.089844 -37.328125 C 71.730469 -40.988281 82.953125 -61.605469 84.78125 -81.121094 C 85.023438 -83.316406 83.683594 -85.023438 81.367188 -85.390625 C 77.707031 -85.878906 72.460938 -85.878906 69.167969 -85.878906 C 65.875 -85.878906 58.433594 -85.757812 54.773438 -85.390625 C 52.820312 -85.023438 51.355469 -83.683594 51.355469 -81.609375 C 51.234375 -69.777344 47.695312 -50.378906 42.941406 -50.257812 C 38.183594 -50.257812 34.644531 -69.65625 34.402344 -81.609375 C 34.523438 -83.683594 33.058594 -85.148438 30.984375 -85.390625 C 27.082031 -85.757812 19.640625 -85.878906 16.46875 -85.878906 C 13.175781 -85.878906 7.929688 -85.757812 4.511719 -85.390625 C 2.195312 -85.023438 0.855469 -83.316406 0.976562 -81.121094 C 2.441406 -61.480469 14.152344 -40.988281 28.910156 -37.328125 C 30.375 -36.960938 30.496094 -35.863281 30.253906 -34.644531 C 27.933594 -22.566406 26.226562 -12.929688 25.007812 -3.414062 C 24.886719 -1.585938 26.472656 -0.242188 28.300781 0 C 32.082031 0.367188 39.402344 0.488281 43.304688 0.488281 Z M 43.304688 0.488281 "/></g></g></g><path fill="#000000" d="M 1065.4375 367.148438 C 1077.269531 368.085938 1077.082031 362.097656 1077.082031 362.097656 C 1084.949219 357.105469 1079.003906 347.433594 1079.003906 347.433594 C 1080.179688 336.328125 1078.011719 332.085938 1078.011719 332.085938 C 1079.003906 323.289062 1076.339844 321.042969 1076.339844 321.042969 C 1073.613281 310.5 1069.527344 310.3125 1069.527344 310.3125 C 1068.90625 309.191406 1067.359375 308.128906 1066.058594 307.691406 C 1064.757812 307.253906 1064.941406 310.125 1064.941406 310.125 C 1058.871094 306.695312 1058.5625 307.691406 1058.5625 307.691406 C 1059.304688 308.316406 1060.421875 312.308594 1060.421875 312.308594 C 1057.386719 315.117188 1057.695312 321.917969 1057.695312 321.917969 C 1059.617188 324.414062 1060.730469 324.476562 1060.730469 324.476562 C 1060.730469 324.476562 1059.304688 328.59375 1059.988281 331.277344 C 1059.988281 331.277344 1046.980469 350.867188 1054.847656 364.652344 C 1054.847656 364.652344 1047.164062 371.953125 1039.734375 369.332031 C 1032.300781 366.710938 1039.734375 353.984375 1039.734375 353.984375 C 1039.734375 353.984375 1040.550781 351.003906 1037.628906 353.113281 C 1032.796875 356.605469 1029.511719 373.175781 1037.34375 374.238281 C 1059.109375 377.195312 1061.238281 366.8125 1065.4375 367.148438 Z M 1065.4375 367.148438 " fill-opacity="1" fill-rule="nonzero"/><g clip-path="url(#3e8251d9c6)"><g clip-path="url(#e4f753e101)"><g clip-path="url(#d15f5d7d60)"><path fill="#7ed957" d="M 175.285156 348.023438 C 181.996094 352.269531 184.914062 359.691406 181.808594 364.59375 C 178.707031 369.492188 170.75 370.023438 164.042969 365.777344 C 157.335938 361.527344 154.414062 354.109375 157.519531 349.207031 C 160.625 344.304688 168.578125 343.777344 175.285156 348.023438 Z M 242.894531 362.472656 C 241 363.972656 238.894531 365.050781 236.574219 365.707031 C 234.25 366.367188 231.894531 366.554688 229.496094 366.269531 C 229.058594 366.21875 228.617188 366.210938 228.175781 366.246094 C 227.734375 366.28125 227.304688 366.359375 226.878906 366.476562 C 226.453125 366.597656 226.042969 366.757812 225.648438 366.960938 C 225.253906 367.160156 224.886719 367.398438 224.539062 367.671875 C 224.191406 367.949219 223.875 368.253906 223.589844 368.589844 C 223.300781 368.925781 223.050781 369.285156 222.835938 369.671875 C 222.621094 370.058594 222.445312 370.460938 222.308594 370.882812 C 222.171875 371.304688 222.078125 371.734375 222.027344 372.171875 C 221.957031 372.765625 221.859375 373.351562 221.734375 373.933594 C 221.605469 374.515625 221.449219 375.089844 221.265625 375.65625 C 221.082031 376.222656 220.871094 376.78125 220.636719 377.328125 C 220.398438 377.875 220.132812 378.40625 219.84375 378.925781 C 219.550781 379.449219 219.234375 379.953125 218.894531 380.441406 C 218.554688 380.929688 218.191406 381.402344 217.804688 381.855469 C 217.417969 382.308594 217.011719 382.742188 216.582031 383.15625 C 216.152344 383.570312 215.707031 383.960938 215.238281 384.332031 C 214.769531 384.699219 214.285156 385.046875 213.785156 385.367188 C 213.28125 385.691406 212.765625 385.988281 212.238281 386.257812 C 211.707031 386.527344 211.164062 386.773438 210.609375 386.992188 C 210.054688 387.207031 209.488281 387.398438 208.917969 387.5625 C 208.34375 387.722656 207.761719 387.859375 207.175781 387.964844 C 206.589844 388.070312 206 388.144531 205.40625 388.191406 C 204.8125 388.242188 204.21875 388.257812 203.621094 388.246094 C 203.027344 388.238281 202.433594 388.195312 201.839844 388.128906 C 201.25 388.058594 200.660156 387.960938 200.078125 387.832031 C 199.496094 387.707031 198.921875 387.550781 198.355469 387.367188 C 197.789062 387.183594 197.230469 386.972656 196.6875 386.734375 C 196.140625 386.496094 195.605469 386.230469 195.085938 385.941406 C 194.566406 385.652344 194.0625 385.335938 193.570312 384.996094 C 193.082031 384.65625 192.609375 384.292969 192.15625 383.90625 C 191.703125 383.519531 191.269531 383.113281 190.855469 382.683594 C 190.445312 382.253906 190.050781 381.804688 189.683594 381.339844 C 189.3125 380.871094 188.96875 380.386719 188.644531 379.882812 C 188.324219 379.382812 188.027344 378.867188 187.753906 378.335938 C 187.484375 377.804688 187.238281 377.261719 187.023438 376.707031 C 186.804688 376.152344 186.613281 375.589844 186.453125 375.015625 C 186.289062 374.445312 186.15625 373.863281 186.050781 373.277344 C 185.945312 372.691406 185.867188 372.101562 185.820312 371.507812 C 185.773438 370.914062 185.753906 370.316406 185.765625 369.722656 C 185.777344 369.125 185.816406 368.53125 185.886719 367.941406 C 186.050781 366.539062 186.28125 365.144531 186.582031 363.765625 C 186.882812 362.386719 187.25 361.023438 187.683594 359.679688 C 188.121094 358.335938 188.617188 357.015625 189.183594 355.722656 C 189.746094 354.429688 190.371094 353.164062 191.0625 351.929688 C 191.75 350.699219 192.496094 349.5 193.304688 348.339844 C 194.109375 347.179688 194.96875 346.0625 195.886719 344.988281 C 196.800781 343.914062 197.765625 342.886719 198.785156 341.90625 C 199.800781 340.925781 200.863281 339.996094 201.972656 339.121094 C 203.078125 338.246094 204.226562 337.425781 205.417969 336.664062 C 206.605469 335.902344 207.828125 335.199219 209.085938 334.554688 C 210.34375 333.914062 211.628906 333.332031 212.945312 332.816406 C 214.257812 332.300781 215.59375 331.851562 216.953125 331.464844 C 218.3125 331.082031 219.6875 330.761719 221.078125 330.511719 C 222.46875 330.261719 223.867188 330.082031 225.273438 329.96875 C 226.683594 329.859375 228.089844 329.816406 229.503906 329.839844 C 230.914062 329.867188 232.324219 329.964844 233.726562 330.128906 C 234.613281 330.230469 235.492188 330.398438 236.355469 330.632812 C 237.21875 330.867188 238.058594 331.164062 238.878906 331.519531 C 239.699219 331.878906 240.492188 332.292969 241.25 332.765625 C 242.007812 333.242188 242.726562 333.769531 243.410156 334.347656 C 244.089844 334.929688 244.726562 335.554688 245.3125 336.230469 C 245.902344 336.902344 246.4375 337.617188 246.921875 338.371094 C 247.40625 339.121094 247.832031 339.90625 248.199219 340.722656 C 248.566406 341.539062 248.871094 342.375 249.117188 343.238281 C 249.359375 344.097656 249.539062 344.972656 249.65625 345.859375 C 249.769531 346.746094 249.820312 347.636719 249.800781 348.53125 C 249.785156 349.425781 249.703125 350.316406 249.554688 351.199219 C 249.410156 352.082031 249.199219 352.945312 248.921875 353.796875 C 248.644531 354.648438 248.308594 355.476562 247.914062 356.277344 C 247.515625 357.078125 247.0625 357.847656 246.550781 358.582031 C 246.039062 359.316406 245.476562 360.011719 244.863281 360.660156 C 244.253906 361.3125 243.59375 361.917969 242.894531 362.472656 Z M 186.890625 322.980469 C 193.164062 329.539062 194.363281 338.574219 189.570312 343.160156 C 184.777344 347.746094 175.800781 346.144531 169.527344 339.585938 C 163.253906 333.027344 162.054688 323.996094 166.847656 319.40625 C 171.640625 314.824219 180.613281 316.421875 186.890625 322.980469 Z M 189.75 320.71875 C 194.683594 328.339844 203.195312 331.59375 208.765625 327.988281 C 214.332031 324.382812 214.847656 315.285156 209.914062 307.664062 C 204.984375 300.042969 196.472656 296.789062 190.902344 300.394531 C 185.335938 304 184.816406 313.097656 189.75 320.71875 Z M 216.796875 315.214844 C 219.378906 322.722656 225.921875 327.28125 231.410156 325.390625 C 236.894531 323.5 239.25 315.882812 236.667969 308.375 C 234.082031 300.867188 227.539062 296.3125 222.050781 298.203125 C 216.566406 300.089844 214.210938 307.707031 216.796875 315.214844 Z M 216.796875 315.214844 " fill-opacity="1" fill-rule="nonzero"/></g></g></g></svg>