<svg xmlns="http://www.w3.org/2000/svg" xmlns:xlink="http://www.w3.org/1999/xlink" width="500" zoomAndPan="magnify" viewBox="0 0 375 374.999991" height="500" preserveAspectRatio="xMidYMid meet" version="1.0"><defs><g/><clipPath id="2b515e80fa"><path d="M 111 102 L 275 102 L 275 301.75 L 111 301.75 Z M 111 102 " clip-rule="nonzero"/></clipPath><clipPath id="a89224c252"><path d="M 278 147 L 302.355469 147 L 302.355469 205 L 278 205 Z M 278 147 " clip-rule="nonzero"/></clipPath></defs><path fill="#7ed957" d="M 159.117188 129.707031 C 164.234375 127.628906 168.792969 124.714844 172.757812 121.492188 C 172.066406 114.828125 170.945312 109.578125 169.421875 105.878906 C 165.019531 95.199219 153.238281 79.328125 146.273438 76.71875 C 145.171875 76.308594 144.285156 76.261719 143.640625 76.585938 C 139.566406 78.625 140.019531 89.429688 141.359375 96.746094 C 144.132812 96.644531 145.984375 96.800781 146.171875 96.820312 C 147.191406 96.914062 147.9375 97.8125 147.84375 98.828125 C 147.753906 99.847656 146.855469 100.601562 145.835938 100.503906 C 145.726562 100.492188 134.789062 99.570312 125.667969 104.128906 C 116.515625 108.707031 110.597656 118.0625 110.539062 118.15625 C 110.1875 118.71875 109.585938 119.027344 108.96875 119.027344 C 108.632812 119.027344 108.296875 118.933594 107.992188 118.746094 C 107.125 118.203125 106.863281 117.0625 107.402344 116.195312 C 107.503906 116.035156 108.515625 114.4375 110.300781 112.253906 C 105.402344 106.730469 97.234375 99.785156 93.1875 101.8125 C 92.53125 102.136719 92.019531 102.890625 91.667969 104.042969 C 89.464844 111.25 94.699219 130.40625 100.371094 140.449219 C 101.984375 143.3125 104.59375 146.597656 108.140625 150.246094 L 108.140625 134.714844 C 108.140625 134.160156 108.386719 133.636719 108.816406 133.285156 C 109.246094 132.933594 109.808594 132.792969 110.351562 132.902344 C 110.625 132.957031 137.972656 138.285156 159.117188 129.707031 Z M 159.117188 129.707031 " fill-opacity="1" fill-rule="nonzero"/><path fill="#7ed957" d="M 96.363281 194.632812 C 88.714844 184.71875 89.609375 166.6875 90.601562 160.574219 C 91.234375 156.828125 88.757812 153.269531 85.082031 152.628906 C 84.714844 152.5625 84.335938 152.53125 83.957031 152.53125 C 80.667969 152.53125 77.875 154.929688 77.3125 158.230469 C 76.832031 161.078125 72.96875 186.527344 85.757812 203.109375 C 90.238281 208.917969 97.761719 213.445312 108.140625 216.597656 L 108.140625 202.160156 C 102.578125 200.085938 98.617188 197.554688 96.363281 194.632812 Z M 96.363281 194.632812 " fill-opacity="1" fill-rule="nonzero"/><path fill="#7ed957" d="M 292.066406 113.976562 C 290.199219 101.960938 270.515625 104.285156 270.316406 104.3125 C 269.703125 104.386719 269.085938 104.152344 268.679688 103.679688 C 268.628906 103.621094 263.425781 97.640625 255.539062 94.039062 C 247.617188 90.421875 239.804688 90.464844 239.71875 90.457031 C 239.714844 90.457031 239.707031 90.457031 239.703125 90.457031 C 239.089844 90.457031 238.515625 90.152344 238.167969 89.640625 C 238.058594 89.476562 226.71875 72.988281 216.644531 79.519531 C 209.082031 84.417969 212.199219 101.957031 214.945312 111.613281 C 219.433594 105.449219 224.441406 100.289062 230.09375 95.988281 C 230.90625 95.371094 232.066406 95.53125 232.683594 96.34375 C 233.304688 97.15625 233.144531 98.316406 232.332031 98.933594 C 224.949219 104.550781 218.710938 111.734375 213.296875 120.855469 C 217.441406 124.328125 222.253906 127.492188 227.710938 129.703125 C 240.800781 135.015625 256.265625 134.996094 266.214844 134.199219 C 267.46875 127.597656 267.84375 121.28125 267.332031 114.941406 C 267.25 113.921875 268.007812 113.03125 269.027344 112.949219 C 270.050781 112.867188 270.9375 113.625 271.019531 114.644531 C 271.53125 120.980469 271.210938 127.28125 270.050781 133.828125 C 273.222656 133.472656 275.414062 133.097656 276.175781 132.957031 C 282.75 129.070312 293.246094 121.582031 292.066406 113.976562 Z M 292.066406 113.976562 " fill-opacity="1" fill-rule="nonzero"/><g clip-path="url(#2b515e80fa)"><path fill="#7ed957" d="M 226.320312 133.132812 C 208.484375 125.898438 197.398438 109.707031 193.414062 102.992188 C 189.429688 109.707031 178.34375 125.898438 160.507812 133.132812 C 141.660156 140.78125 118.964844 138.054688 111.835938 136.917969 L 111.835938 248 C 111.835938 259.671875 120.613281 271.710938 136.550781 281.898438 C 151.714844 291.59375 172.429688 298.90625 193.414062 301.976562 C 214.398438 298.90625 235.109375 291.59375 250.273438 281.898438 C 266.210938 271.710938 274.988281 259.671875 274.988281 248 L 274.988281 136.917969 C 267.867188 138.054688 245.167969 140.78125 226.320312 133.132812 Z M 234.210938 224.203125 L 209.253906 224.203125 L 209.253906 249.519531 L 177.574219 249.519531 L 177.574219 224.203125 L 152.617188 224.203125 L 152.617188 192.070312 L 177.574219 192.070312 L 177.574219 166.753906 L 209.253906 166.753906 L 209.253906 192.070312 L 234.210938 192.070312 Z M 234.210938 224.203125 " fill-opacity="1" fill-rule="nonzero"/></g><g clip-path="url(#a89224c252)"><path fill="#7ed957" d="M 298.0625 177.402344 C 298.101562 177.363281 302.023438 173.371094 302.023438 169.265625 C 302.023438 165.195312 298.53125 161.789062 298.496094 161.753906 C 297.953125 161.230469 297.777344 160.429688 298.058594 159.730469 C 298.628906 158.289062 299.855469 154.015625 298.65625 151.609375 C 297.863281 150.019531 295.933594 148.585938 294.257812 147.59375 C 293.894531 152.425781 292.859375 162.246094 290.195312 168.238281 C 287.167969 175.042969 280.871094 180.453125 278.6875 182.1875 L 278.6875 204.660156 C 280.519531 204.765625 283.203125 204.617188 284.886719 203.410156 C 287.011719 201.882812 287.277344 197.207031 287.207031 195.691406 C 287.179688 195.167969 287.378906 194.660156 287.75 194.289062 C 288.121094 193.921875 288.628906 193.726562 289.152344 193.753906 C 290.972656 193.847656 296.132812 193.46875 298.023438 190.652344 C 299.972656 187.753906 298.398438 181.496094 297.628906 179.332031 C 297.386719 178.660156 297.558594 177.90625 298.0625 177.402344 Z M 298.0625 177.402344 " fill-opacity="1" fill-rule="nonzero"/></g><g fill="#7ed957" fill-opacity="1"><g transform="translate(118.617251, 339.434363)"><g><path d="M 12.480469 0.152344 C 16.03125 0.152344 22.40625 0.152344 24.960938 0 C 25.570312 -0.0390625 25.992188 -0.496094 25.953125 -1.070312 C 25.878906 -3.511719 25.609375 -8.816406 25.34375 -11.296875 C 25.265625 -12.40625 24.082031 -12.59375 23.550781 -11.71875 C 21.601562 -8.664062 19.578125 -7.671875 15.648438 -7.671875 C 12.328125 -7.671875 10.648438 -8.96875 10.648438 -11.527344 C 10.609375 -16.410156 11.527344 -20.152344 12.671875 -25.457031 C 12.824219 -26.070312 12.289062 -26.640625 11.601562 -26.71875 C 10.382812 -26.832031 9.351562 -26.871094 7.9375 -26.871094 C 5.914062 -26.871094 4.425781 -26.871094 2.863281 -26.71875 C 2.289062 -26.640625 1.832031 -26.335938 1.753906 -25.761719 C 1.222656 -19.847656 0.839844 -9.734375 0.761719 -1.105469 C 0.761719 -0.496094 1.257812 -0.0390625 1.871094 0 C 3.929688 0.152344 9.734375 0.152344 12.480469 0.152344 Z M 12.480469 0.152344 "/></g></g></g><g fill="#7ed957" fill-opacity="1"><g transform="translate(145.097664, 339.434363)"><g><path d="M 14.542969 0.304688 C 22.9375 0.304688 28.625 -2.863281 28.625 -12.214844 C 28.625 -21.449219 22.976562 -27.023438 14.542969 -27.023438 C 6.144531 -26.984375 0.457031 -21.449219 0.457031 -12.214844 C 0.457031 -2.863281 6.183594 0.304688 14.542969 0.304688 Z M 14.542969 -7.519531 C 12.175781 -7.519531 10.535156 -8.929688 10.535156 -12.59375 C 10.535156 -16.296875 12.097656 -19.199219 14.542969 -19.199219 C 16.984375 -19.199219 18.550781 -16.335938 18.550781 -12.59375 C 18.550781 -8.929688 16.90625 -7.519531 14.542969 -7.519531 Z M 14.542969 -7.519531 "/></g></g></g><g fill="#7ed957" fill-opacity="1"><g transform="translate(174.172693, 339.434363)"><g><path d="M 15.417969 0.265625 C 19.238281 0.265625 23.929688 -0.574219 26.183594 -1.414062 C 26.566406 -1.601562 26.90625 -2.023438 26.871094 -2.558594 C 26.753906 -5.265625 26.679688 -7.9375 26.488281 -10.648438 C 26.410156 -11.792969 25.457031 -11.945312 24.921875 -11.296875 C 22.441406 -8.777344 19.769531 -7.824219 16.527344 -7.824219 C 12.863281 -7.824219 10.496094 -9.425781 10.496094 -12.863281 C 10.496094 -17.214844 12.519531 -19.503906 16.070312 -19.503906 C 18.777344 -19.503906 20.6875 -18.511719 22.328125 -16.871094 C 22.902344 -16.222656 23.703125 -16.410156 23.816406 -17.289062 C 24.046875 -18.96875 24.351562 -22.289062 24.578125 -23.96875 C 24.65625 -24.503906 24.503906 -25 24.007812 -25.265625 C 21.792969 -26.375 19.082031 -27.023438 15.535156 -27.023438 C 6.601562 -27.023438 0.496094 -21.257812 0.496094 -12.289062 C 0.496094 -3.015625 6.640625 0.265625 15.417969 0.265625 Z M 15.417969 0.265625 "/></g></g></g><g fill="#7ed957" fill-opacity="1"><g transform="translate(201.721481, 339.434363)"><g><path d="M 12.976562 0.304688 C 19.808594 0.304688 27.441406 -1.335938 27.441406 -6.640625 C 27.441406 -9.734375 24.503906 -12.9375 18.242188 -14.121094 C 17.480469 -14.351562 17.519531 -14.886719 18.242188 -15.152344 C 23.320312 -16.144531 26.144531 -18.742188 26.144531 -21.601562 C 26.144531 -25.191406 22.441406 -26.90625 15.34375 -26.90625 C 10.914062 -26.90625 7.023438 -26.945312 2.75 -26.71875 C 2.175781 -26.679688 1.792969 -26.296875 1.753906 -25.761719 C 1.257812 -20.113281 0.761719 -10.382812 0.761719 -1.257812 C 0.761719 -0.609375 1.257812 -0.0390625 1.945312 0 C 4.464844 0.152344 10.191406 0.304688 12.976562 0.304688 Z M 11.753906 -15.914062 C 11.105469 -15.800781 10.648438 -16.070312 10.648438 -16.71875 C 10.609375 -17.710938 10.609375 -18.777344 10.648438 -19.769531 C 10.648438 -20.382812 11.03125 -20.726562 11.71875 -20.726562 C 12.136719 -20.761719 12.785156 -20.761719 13.320312 -20.761719 C 15.417969 -20.761719 16.527344 -20.152344 16.527344 -18.894531 C 16.527344 -17.671875 15.34375 -16.410156 11.753906 -15.914062 Z M 11.910156 -6.832031 C 11.105469 -6.832031 10.648438 -7.25 10.648438 -8.054688 C 10.609375 -9.273438 10.609375 -10.496094 10.648438 -11.71875 C 10.648438 -12.441406 11.070312 -12.863281 11.792969 -12.710938 C 15.417969 -12.25 17.480469 -10.953125 17.480469 -9.3125 C 17.480469 -7.710938 16.183594 -6.792969 14.160156 -6.792969 C 13.511719 -6.792969 12.558594 -6.792969 11.910156 -6.832031 Z M 11.910156 -6.832031 "/></g></g></g><g fill="#7ed957" fill-opacity="1"><g transform="translate(229.613672, 339.434363)"><g><path d="M 14.542969 0.304688 C 22.9375 0.304688 28.625 -2.863281 28.625 -12.214844 C 28.625 -21.449219 22.976562 -27.023438 14.542969 -27.023438 C 6.144531 -26.984375 0.457031 -21.449219 0.457031 -12.214844 C 0.457031 -2.863281 6.183594 0.304688 14.542969 0.304688 Z M 14.542969 -7.519531 C 12.175781 -7.519531 10.535156 -8.929688 10.535156 -12.59375 C 10.535156 -16.296875 12.097656 -19.199219 14.542969 -19.199219 C 16.984375 -19.199219 18.550781 -16.335938 18.550781 -12.59375 C 18.550781 -8.929688 16.90625 -7.519531 14.542969 -7.519531 Z M 14.542969 -7.519531 "/></g></g></g><g fill="#7ed957" fill-opacity="1"><g transform="translate(258.688701, 339.434363)"><g><path d="M 13.550781 0.152344 C 14.695312 0.152344 16.945312 0.113281 18.015625 0 C 18.585938 -0.078125 19.121094 -0.496094 19.046875 -1.070312 C 18.703125 -4.082031 18.167969 -7.0625 17.480469 -10.800781 C 17.367188 -11.222656 17.40625 -11.566406 17.863281 -11.679688 C 22.441406 -12.824219 25.953125 -19.273438 26.527344 -25.382812 C 26.601562 -26.070312 26.183594 -26.601562 25.457031 -26.71875 C 24.3125 -26.871094 22.671875 -26.871094 21.640625 -26.871094 C 20.609375 -26.871094 18.28125 -26.832031 17.136719 -26.71875 C 16.527344 -26.601562 16.070312 -26.183594 16.070312 -25.535156 C 16.03125 -21.832031 14.921875 -15.761719 13.433594 -15.726562 C 11.945312 -15.726562 10.839844 -21.792969 10.761719 -25.535156 C 10.800781 -26.183594 10.34375 -26.640625 9.695312 -26.71875 C 8.472656 -26.832031 6.144531 -26.871094 5.152344 -26.871094 C 4.121094 -26.871094 2.480469 -26.832031 1.414062 -26.71875 C 0.6875 -26.601562 0.265625 -26.070312 0.304688 -25.382812 C 0.761719 -19.238281 4.425781 -12.824219 9.046875 -11.679688 C 9.503906 -11.566406 9.542969 -11.222656 9.464844 -10.839844 C 8.742188 -7.0625 8.207031 -4.046875 7.824219 -1.070312 C 7.785156 -0.496094 8.28125 -0.078125 8.855469 0 C 10.039062 0.113281 12.328125 0.152344 13.550781 0.152344 Z M 13.550781 0.152344 "/></g></g></g><g fill="#7ed957" fill-opacity="1"><g transform="translate(109.937452, 64.815613)"><g><path d="M 15.417969 0.265625 C 19.238281 0.265625 23.929688 -0.574219 26.183594 -1.414062 C 26.566406 -1.601562 26.90625 -2.023438 26.871094 -2.558594 C 26.753906 -5.265625 26.679688 -7.9375 26.488281 -10.648438 C 26.410156 -11.792969 25.457031 -11.945312 24.921875 -11.296875 C 22.441406 -8.777344 19.769531 -7.824219 16.527344 -7.824219 C 12.863281 -7.824219 10.496094 -9.425781 10.496094 -12.863281 C 10.496094 -17.214844 12.519531 -19.503906 16.070312 -19.503906 C 18.777344 -19.503906 20.6875 -18.511719 22.328125 -16.871094 C 22.902344 -16.222656 23.703125 -16.410156 23.816406 -17.289062 C 24.046875 -18.96875 24.351562 -22.289062 24.578125 -23.96875 C 24.65625 -24.503906 24.503906 -25 24.007812 -25.265625 C 21.792969 -26.375 19.082031 -27.023438 15.535156 -27.023438 C 6.601562 -27.023438 0.496094 -21.257812 0.496094 -12.289062 C 0.496094 -3.015625 6.640625 0.265625 15.417969 0.265625 Z M 15.417969 0.265625 "/></g></g></g><g fill="#7ed957" fill-opacity="1"><g transform="translate(137.48624, 64.815613)"><g><path d="M 12.480469 0.152344 C 16.03125 0.152344 22.40625 0.152344 24.960938 0 C 25.570312 -0.0390625 25.992188 -0.496094 25.953125 -1.070312 C 25.878906 -3.511719 25.609375 -8.816406 25.34375 -11.296875 C 25.265625 -12.40625 24.082031 -12.59375 23.550781 -11.71875 C 21.601562 -8.664062 19.578125 -7.671875 15.648438 -7.671875 C 12.328125 -7.671875 10.648438 -8.96875 10.648438 -11.527344 C 10.609375 -16.410156 11.527344 -20.152344 12.671875 -25.457031 C 12.824219 -26.070312 12.289062 -26.640625 11.601562 -26.71875 C 10.382812 -26.832031 9.351562 -26.871094 7.9375 -26.871094 C 5.914062 -26.871094 4.425781 -26.871094 2.863281 -26.71875 C 2.289062 -26.640625 1.832031 -26.335938 1.753906 -25.761719 C 1.222656 -19.847656 0.839844 -9.734375 0.761719 -1.105469 C 0.761719 -0.496094 1.257812 -0.0390625 1.871094 0 C 3.929688 0.152344 9.734375 0.152344 12.480469 0.152344 Z M 12.480469 0.152344 "/></g></g></g><g fill="#7ed957" fill-opacity="1"><g transform="translate(163.966653, 64.815613)"><g><path d="M 6.070312 0.152344 C 7.097656 0.152344 9.238281 0.113281 10.304688 0 C 10.878906 -0.078125 11.410156 -0.496094 11.410156 -1.144531 C 11.410156 -10.304688 11.03125 -20.074219 10.535156 -25.726562 C 10.496094 -26.257812 10.078125 -26.601562 9.503906 -26.71875 C 8.585938 -26.832031 6.945312 -26.871094 6.105469 -26.871094 C 5.304688 -26.871094 3.585938 -26.832031 2.632812 -26.71875 C 2.0625 -26.601562 1.640625 -26.257812 1.601562 -25.726562 C 1.105469 -20.074219 0.761719 -10.304688 0.761719 -1.144531 C 0.761719 -0.496094 1.257812 -0.078125 1.832031 0 C 2.902344 0.113281 5.078125 0.152344 6.070312 0.152344 Z M 6.070312 0.152344 "/></g></g></g><g fill="#7ed957" fill-opacity="1"><g transform="translate(176.100331, 64.815613)"><g><path d="M 23.550781 0.304688 C 26.410156 0.304688 27.402344 -1.945312 27.367188 -4.921875 C 27.328125 -13.433594 26.871094 -20.648438 26.410156 -25.726562 C 26.335938 -26.296875 25.878906 -26.640625 25.304688 -26.71875 C 24.273438 -26.832031 22.746094 -26.871094 21.871094 -26.871094 C 20.953125 -26.871094 19.425781 -26.832031 18.472656 -26.71875 C 17.746094 -26.601562 17.25 -26.03125 17.40625 -25.304688 C 18.015625 -22.289062 18.855469 -15.839844 17.328125 -15.839844 C 15.535156 -15.839844 12.175781 -22.289062 10.574219 -25.191406 C 9.769531 -26.222656 9.160156 -26.601562 8.054688 -26.71875 C 7.289062 -26.832031 6.257812 -26.871094 5.609375 -26.871094 C 5.039062 -26.871094 3.511719 -26.832031 2.863281 -26.71875 C 2.289062 -26.601562 1.871094 -26.296875 1.832031 -25.726562 C 1.296875 -20.074219 0.761719 -10.304688 0.761719 -1.144531 C 0.761719 -0.535156 1.257812 -0.113281 1.871094 0 C 3.054688 0.152344 4.808594 0.152344 5.800781 0.152344 C 6.871094 0.152344 8.855469 0.152344 10 0 C 10.6875 -0.113281 11.222656 -0.535156 11.105469 -1.296875 C 10.953125 -3.054688 10.496094 -6.375 10.496094 -8.398438 C 10.535156 -10.078125 10.839844 -11.296875 11.601562 -11.296875 C 14.3125 -11.296875 17.214844 0.304688 23.550781 0.304688 Z M 23.550781 0.304688 "/></g></g></g><g fill="#7ed957" fill-opacity="1"><g transform="translate(204.221461, 64.815613)"><g><path d="M 6.070312 0.152344 C 7.097656 0.152344 9.238281 0.113281 10.304688 0 C 10.878906 -0.078125 11.410156 -0.496094 11.410156 -1.144531 C 11.410156 -10.304688 11.03125 -20.074219 10.535156 -25.726562 C 10.496094 -26.257812 10.078125 -26.601562 9.503906 -26.71875 C 8.585938 -26.832031 6.945312 -26.871094 6.105469 -26.871094 C 5.304688 -26.871094 3.585938 -26.832031 2.632812 -26.71875 C 2.0625 -26.601562 1.640625 -26.257812 1.601562 -25.726562 C 1.105469 -20.074219 0.761719 -10.304688 0.761719 -1.144531 C 0.761719 -0.496094 1.257812 -0.078125 1.832031 0 C 2.902344 0.113281 5.078125 0.152344 6.070312 0.152344 Z M 6.070312 0.152344 "/></g></g></g><g fill="#7ed957" fill-opacity="1"><g transform="translate(216.355139, 64.815613)"><g><path d="M 15.417969 0.265625 C 19.238281 0.265625 23.929688 -0.574219 26.183594 -1.414062 C 26.566406 -1.601562 26.90625 -2.023438 26.871094 -2.558594 C 26.753906 -5.265625 26.679688 -7.9375 26.488281 -10.648438 C 26.410156 -11.792969 25.457031 -11.945312 24.921875 -11.296875 C 22.441406 -8.777344 19.769531 -7.824219 16.527344 -7.824219 C 12.863281 -7.824219 10.496094 -9.425781 10.496094 -12.863281 C 10.496094 -17.214844 12.519531 -19.503906 16.070312 -19.503906 C 18.777344 -19.503906 20.6875 -18.511719 22.328125 -16.871094 C 22.902344 -16.222656 23.703125 -16.410156 23.816406 -17.289062 C 24.046875 -18.96875 24.351562 -22.289062 24.578125 -23.96875 C 24.65625 -24.503906 24.503906 -25 24.007812 -25.265625 C 21.792969 -26.375 19.082031 -27.023438 15.535156 -27.023438 C 6.601562 -27.023438 0.496094 -21.257812 0.496094 -12.289062 C 0.496094 -3.015625 6.640625 0.265625 15.417969 0.265625 Z M 15.417969 0.265625 "/></g></g></g><g fill="#7ed957" fill-opacity="1"><g transform="translate(243.903927, 64.815613)"><g><path d="M 5.304688 0.152344 C 6.488281 0.152344 8.742188 0.113281 9.886719 0 C 10.417969 -0.078125 10.914062 -0.496094 10.878906 -1.105469 C 10.761719 -2.40625 10.800781 -3.929688 10.953125 -5 C 11.183594 -6.335938 12.40625 -6.910156 13.742188 -6.945312 L 15.191406 -6.945312 C 16.566406 -6.910156 17.785156 -6.414062 18.015625 -5 C 18.128906 -3.894531 18.167969 -2.367188 18.089844 -1.144531 C 18.015625 -0.496094 18.511719 -0.078125 19.046875 0 C 20.152344 0.113281 22.289062 0.152344 23.28125 0.152344 C 24.3125 0.152344 26.566406 0.113281 27.671875 0 C 28.320312 -0.0390625 28.738281 -0.535156 28.585938 -1.183594 C 27.023438 -10.382812 23.625 -20.417969 20.953125 -26.070312 C 20.800781 -26.449219 20.457031 -26.640625 20.039062 -26.71875 C 18.550781 -26.871094 15.839844 -26.871094 14.425781 -26.871094 C 12.976562 -26.871094 10.34375 -26.871094 8.929688 -26.71875 C 8.511719 -26.640625 8.167969 -26.449219 8.015625 -26.070312 C 5.34375 -20.417969 1.910156 -10.382812 0.34375 -1.222656 C 0.191406 -0.574219 0.609375 -0.078125 1.296875 0 C 2.328125 0.078125 4.238281 0.152344 5.304688 0.152344 Z M 14.121094 -10.648438 C 12.9375 -10.6875 12.328125 -11.257812 12.59375 -12.214844 C 12.863281 -14.082031 13.359375 -16.449219 13.816406 -18.359375 C 14.199219 -19.578125 14.734375 -19.578125 15.074219 -18.359375 C 15.574219 -16.449219 16.105469 -14.082031 16.335938 -12.214844 C 16.601562 -11.257812 16.03125 -10.6875 14.847656 -10.648438 Z M 14.121094 -10.648438 "/></g></g></g></svg>