<svg xmlns="http://www.w3.org/2000/svg" xmlns:xlink="http://www.w3.org/1999/xlink" width="500" zoomAndPan="magnify" viewBox="0 0 375 374.999991" height="500" preserveAspectRatio="xMidYMid meet" version="1.0"><defs><g/><clipPath id="2999d3b346"><path d="M 111 102 L 275 102 L 275 301.75 L 111 301.75 Z M 111 102 " clip-rule="nonzero"/></clipPath><clipPath id="34cea8ab4f"><path d="M 278 147 L 302.355469 147 L 302.355469 205 L 278 205 Z M 278 147 " clip-rule="nonzero"/></clipPath></defs><path fill="#7ed957" d="M 159.117188 129.707031 C 164.234375 127.628906 168.792969 124.714844 172.757812 121.492188 C 172.066406 114.828125 170.945312 109.578125 169.421875 105.878906 C 165.019531 95.199219 153.238281 79.328125 146.273438 76.71875 C 145.171875 76.308594 144.285156 76.261719 143.640625 76.585938 C 139.566406 78.625 140.019531 89.429688 141.359375 96.746094 C 144.132812 96.644531 145.984375 96.800781 146.171875 96.820312 C 147.191406 96.914062 147.9375 97.8125 147.84375 98.828125 C 147.753906 99.847656 146.855469 100.601562 145.835938 100.503906 C 145.726562 100.492188 134.789062 99.570312 125.667969 104.128906 C 116.515625 108.707031 110.597656 118.0625 110.539062 118.15625 C 110.1875 118.71875 109.585938 119.027344 108.96875 119.027344 C 108.632812 119.027344 108.296875 118.933594 107.992188 118.746094 C 107.125 118.203125 106.863281 117.0625 107.402344 116.195312 C 107.503906 116.035156 108.515625 114.4375 110.300781 112.253906 C 105.402344 106.730469 97.234375 99.785156 93.1875 101.8125 C 92.53125 102.136719 92.019531 102.890625 91.667969 104.042969 C 89.464844 111.25 94.699219 130.40625 100.371094 140.449219 C 101.984375 143.3125 104.59375 146.597656 108.140625 150.246094 L 108.140625 134.714844 C 108.140625 134.160156 108.386719 133.636719 108.816406 133.285156 C 109.246094 132.933594 109.808594 132.792969 110.351562 132.902344 C 110.625 132.957031 137.972656 138.285156 159.117188 129.707031 Z M 159.117188 129.707031 " fill-opacity="1" fill-rule="nonzero"/><path fill="#7ed957" d="M 96.363281 194.632812 C 88.714844 184.71875 89.609375 166.6875 90.601562 160.574219 C 91.234375 156.828125 88.757812 153.269531 85.082031 152.628906 C 84.714844 152.5625 84.335938 152.53125 83.957031 152.53125 C 80.667969 152.53125 77.875 154.929688 77.3125 158.230469 C 76.832031 161.078125 72.96875 186.527344 85.757812 203.109375 C 90.238281 208.917969 97.761719 213.445312 108.140625 216.597656 L 108.140625 202.160156 C 102.578125 200.085938 98.617188 197.554688 96.363281 194.632812 Z M 96.363281 194.632812 " fill-opacity="1" fill-rule="nonzero"/><path fill="#7ed957" d="M 292.066406 113.976562 C 290.199219 101.960938 270.515625 104.285156 270.316406 104.3125 C 269.703125 104.386719 269.085938 104.152344 268.679688 103.679688 C 268.628906 103.621094 263.425781 97.640625 255.539062 94.039062 C 247.617188 90.421875 239.804688 90.464844 239.71875 90.457031 C 239.714844 90.457031 239.707031 90.457031 239.703125 90.457031 C 239.089844 90.457031 238.515625 90.152344 238.167969 89.640625 C 238.058594 89.476562 226.71875 72.988281 216.644531 79.519531 C 209.082031 84.417969 212.199219 101.957031 214.945312 111.613281 C 219.433594 105.449219 224.441406 100.289062 230.09375 95.988281 C 230.90625 95.371094 232.066406 95.53125 232.683594 96.34375 C 233.304688 97.15625 233.144531 98.316406 232.332031 98.933594 C 224.949219 104.550781 218.710938 111.734375 213.296875 120.855469 C 217.441406 124.328125 222.253906 127.492188 227.710938 129.703125 C 240.800781 135.015625 256.265625 134.996094 266.214844 134.199219 C 267.46875 127.597656 267.84375 121.28125 267.332031 114.941406 C 267.25 113.921875 268.007812 113.03125 269.027344 112.949219 C 270.050781 112.867188 270.9375 113.625 271.019531 114.644531 C 271.53125 120.980469 271.210938 127.28125 270.050781 133.828125 C 273.222656 133.472656 275.414062 133.097656 276.175781 132.957031 C 282.75 129.070312 293.246094 121.582031 292.066406 113.976562 Z M 292.066406 113.976562 " fill-opacity="1" fill-rule="nonzero"/><g clip-path="url(#2999d3b346)"><path fill="#7ed957" d="M 226.320312 133.132812 C 208.484375 125.898438 197.398438 109.707031 193.414062 102.992188 C 189.429688 109.707031 178.34375 125.898438 160.507812 133.132812 C 141.660156 140.78125 118.964844 138.054688 111.835938 136.917969 L 111.835938 248 C 111.835938 259.671875 120.613281 271.710938 136.550781 281.898438 C 151.714844 291.59375 172.429688 298.90625 193.414062 301.976562 C 214.398438 298.90625 235.109375 291.59375 250.273438 281.898438 C 266.210938 271.710938 274.988281 259.671875 274.988281 248 L 274.988281 136.917969 C 267.867188 138.054688 245.167969 140.78125 226.320312 133.132812 Z M 234.210938 224.203125 L 209.253906 224.203125 L 209.253906 249.519531 L 177.574219 249.519531 L 177.574219 224.203125 L 152.617188 224.203125 L 152.617188 192.070312 L 177.574219 192.070312 L 177.574219 166.753906 L 209.253906 166.753906 L 209.253906 192.070312 L 234.210938 192.070312 Z M 234.210938 224.203125 " fill-opacity="1" fill-rule="nonzero"/></g><g clip-path="url(#34cea8ab4f)"><path fill="#7ed957" d="M 298.0625 177.402344 C 298.101562 177.363281 302.023438 173.371094 302.023438 169.265625 C 302.023438 165.195312 298.53125 161.789062 298.496094 161.753906 C 297.953125 161.230469 297.777344 160.429688 298.058594 159.730469 C 298.628906 158.289062 299.855469 154.015625 298.65625 151.609375 C 297.863281 150.019531 295.933594 148.585938 294.257812 147.59375 C 293.894531 152.425781 292.859375 162.246094 290.195312 168.238281 C 287.167969 175.042969 280.871094 180.453125 278.6875 182.1875 L 278.6875 204.660156 C 280.519531 204.765625 283.203125 204.617188 284.886719 203.410156 C 287.011719 201.882812 287.277344 197.207031 287.207031 195.691406 C 287.179688 195.167969 287.378906 194.660156 287.75 194.289062 C 288.121094 193.921875 288.628906 193.726562 289.152344 193.753906 C 290.972656 193.847656 296.132812 193.46875 298.023438 190.652344 C 299.972656 187.753906 298.398438 181.496094 297.628906 179.332031 C 297.386719 178.660156 297.558594 177.90625 298.0625 177.402344 Z M 298.0625 177.402344 " fill-opacity="1" fill-rule="nonzero"/></g><g fill="#7ed957" fill-opacity="1"><g transform="translate(171.633504, 279.002103)"><g><path d="M 3.796875 0.046875 C 4.875 0.046875 6.816406 0.046875 7.59375 0 C 7.777344 -0.0117188 7.90625 -0.152344 7.894531 -0.324219 C 7.871094 -1.066406 7.789062 -2.683594 7.707031 -3.4375 C 7.683594 -3.773438 7.324219 -3.832031 7.164062 -3.5625 C 6.570312 -2.636719 5.957031 -2.332031 4.761719 -2.332031 C 3.75 -2.332031 3.238281 -2.726562 3.238281 -3.507812 C 3.226562 -4.992188 3.507812 -6.128906 3.855469 -7.742188 C 3.902344 -7.929688 3.738281 -8.101562 3.527344 -8.125 C 3.15625 -8.160156 2.84375 -8.171875 2.414062 -8.171875 C 1.800781 -8.171875 1.347656 -8.171875 0.871094 -8.125 C 0.695312 -8.101562 0.558594 -8.011719 0.535156 -7.835938 C 0.371094 -6.035156 0.253906 -2.960938 0.230469 -0.335938 C 0.230469 -0.152344 0.382812 -0.0117188 0.570312 0 C 1.195312 0.046875 2.960938 0.046875 3.796875 0.046875 Z M 3.796875 0.046875 "/></g></g></g><g fill="#7ed957" fill-opacity="1"><g transform="translate(179.68809, 279.002103)"><g><path d="M 4.421875 0.09375 C 6.976562 0.09375 8.707031 -0.871094 8.707031 -3.714844 C 8.707031 -6.523438 6.988281 -8.21875 4.421875 -8.21875 C 1.867188 -8.207031 0.140625 -6.523438 0.140625 -3.714844 C 0.140625 -0.871094 1.878906 0.09375 4.421875 0.09375 Z M 4.421875 -2.285156 C 3.703125 -2.285156 3.203125 -2.714844 3.203125 -3.832031 C 3.203125 -4.957031 3.679688 -5.839844 4.421875 -5.839844 C 5.167969 -5.839844 5.640625 -4.96875 5.640625 -3.832031 C 5.640625 -2.714844 5.144531 -2.285156 4.421875 -2.285156 Z M 4.421875 -2.285156 "/></g></g></g><g fill="#7ed957" fill-opacity="1"><g transform="translate(188.531884, 279.002103)"><g><path d="M 4.691406 0.0820312 C 5.851562 0.0820312 7.277344 -0.175781 7.964844 -0.429688 C 8.082031 -0.488281 8.183594 -0.617188 8.171875 -0.777344 C 8.136719 -1.601562 8.113281 -2.414062 8.058594 -3.238281 C 8.035156 -3.585938 7.742188 -3.632812 7.582031 -3.4375 C 6.828125 -2.671875 6.015625 -2.378906 5.027344 -2.378906 C 3.914062 -2.378906 3.191406 -2.867188 3.191406 -3.914062 C 3.191406 -5.234375 3.808594 -5.933594 4.886719 -5.933594 C 5.710938 -5.933594 6.292969 -5.628906 6.792969 -5.132812 C 6.964844 -4.933594 7.210938 -4.992188 7.246094 -5.257812 C 7.3125 -5.769531 7.40625 -6.78125 7.476562 -7.289062 C 7.5 -7.453125 7.453125 -7.605469 7.300781 -7.683594 C 6.628906 -8.023438 5.804688 -8.21875 4.726562 -8.21875 C 2.007812 -8.21875 0.152344 -6.464844 0.152344 -3.738281 C 0.152344 -0.917969 2.019531 0.0820312 4.691406 0.0820312 Z M 4.691406 0.0820312 "/></g></g></g><g fill="#7ed957" fill-opacity="1"><g transform="translate(196.911439, 279.002103)"><g><path d="M 3.945312 0.09375 C 6.023438 0.09375 8.347656 -0.40625 8.347656 -2.019531 C 8.347656 -2.960938 7.453125 -3.9375 5.550781 -4.296875 C 5.316406 -4.363281 5.328125 -4.527344 5.550781 -4.609375 C 7.09375 -4.910156 7.953125 -5.699219 7.953125 -6.570312 C 7.953125 -7.664062 6.828125 -8.183594 4.667969 -8.183594 C 3.320312 -8.183594 2.136719 -8.195312 0.835938 -8.125 C 0.660156 -8.113281 0.546875 -8 0.535156 -7.835938 C 0.382812 -6.117188 0.230469 -3.15625 0.230469 -0.382812 C 0.230469 -0.1875 0.382812 -0.0117188 0.59375 0 C 1.359375 0.046875 3.101562 0.09375 3.945312 0.09375 Z M 3.574219 -4.839844 C 3.378906 -4.804688 3.238281 -4.886719 3.238281 -5.085938 C 3.226562 -5.386719 3.226562 -5.710938 3.238281 -6.015625 C 3.238281 -6.199219 3.355469 -6.304688 3.5625 -6.304688 C 3.691406 -6.316406 3.890625 -6.316406 4.050781 -6.316406 C 4.691406 -6.316406 5.027344 -6.128906 5.027344 -5.746094 C 5.027344 -5.375 4.667969 -4.992188 3.574219 -4.839844 Z M 3.621094 -2.078125 C 3.378906 -2.078125 3.238281 -2.207031 3.238281 -2.449219 C 3.226562 -2.820312 3.226562 -3.191406 3.238281 -3.5625 C 3.238281 -3.785156 3.367188 -3.914062 3.585938 -3.867188 C 4.691406 -3.726562 5.316406 -3.332031 5.316406 -2.832031 C 5.316406 -2.34375 4.921875 -2.066406 4.308594 -2.066406 C 4.109375 -2.066406 3.820312 -2.066406 3.621094 -2.078125 Z M 3.621094 -2.078125 "/></g></g></g><g fill="#7ed957" fill-opacity="1"><g transform="translate(205.395448, 279.002103)"><g><path d="M 4.421875 0.09375 C 6.976562 0.09375 8.707031 -0.871094 8.707031 -3.714844 C 8.707031 -6.523438 6.988281 -8.21875 4.421875 -8.21875 C 1.867188 -8.207031 0.140625 -6.523438 0.140625 -3.714844 C 0.140625 -0.871094 1.878906 0.09375 4.421875 0.09375 Z M 4.421875 -2.285156 C 3.703125 -2.285156 3.203125 -2.714844 3.203125 -3.832031 C 3.203125 -4.957031 3.679688 -5.839844 4.421875 -5.839844 C 5.167969 -5.839844 5.640625 -4.96875 5.640625 -3.832031 C 5.640625 -2.714844 5.144531 -2.285156 4.421875 -2.285156 Z M 4.421875 -2.285156 "/></g></g></g><g fill="#7ed957" fill-opacity="1"><g transform="translate(214.239242, 279.002103)"><g><path d="M 4.121094 0.046875 C 4.46875 0.046875 5.15625 0.0351562 5.480469 0 C 5.652344 -0.0234375 5.816406 -0.152344 5.792969 -0.324219 C 5.6875 -1.242188 5.527344 -2.148438 5.316406 -3.285156 C 5.28125 -3.414062 5.292969 -3.519531 5.433594 -3.550781 C 6.828125 -3.902344 7.894531 -5.863281 8.070312 -7.71875 C 8.089844 -7.929688 7.964844 -8.089844 7.742188 -8.125 C 7.394531 -8.171875 6.894531 -8.171875 6.582031 -8.171875 C 6.269531 -8.171875 5.5625 -8.160156 5.210938 -8.125 C 5.027344 -8.089844 4.886719 -7.964844 4.886719 -7.765625 C 4.875 -6.640625 4.539062 -4.792969 4.085938 -4.78125 C 3.632812 -4.78125 3.296875 -6.628906 3.273438 -7.765625 C 3.285156 -7.964844 3.144531 -8.101562 2.949219 -8.125 C 2.578125 -8.160156 1.867188 -8.171875 1.566406 -8.171875 C 1.253906 -8.171875 0.753906 -8.160156 0.429688 -8.125 C 0.207031 -8.089844 0.0820312 -7.929688 0.09375 -7.71875 C 0.230469 -5.851562 1.347656 -3.902344 2.75 -3.550781 C 2.890625 -3.519531 2.902344 -3.414062 2.878906 -3.296875 C 2.660156 -2.148438 2.496094 -1.230469 2.378906 -0.324219 C 2.367188 -0.152344 2.519531 -0.0234375 2.695312 0 C 3.054688 0.0351562 3.75 0.046875 4.121094 0.046875 Z M 4.121094 0.046875 "/></g></g></g></svg>